<?xml version="1.0" encoding="utf-8" ?>
<svg xmlns="http://www.w3.org/2000/svg" xmlns:xlink="http://www.w3.org/1999/xlink" width="1023" height="768">
	<path fill="#E9F5DB" transform="scale(1.33333 1)" d="M-0 -0L768 0L768 768L-0 768L0 -0Z"/>
	<path fill="#3A3D12" transform="scale(1.33333 1)" d="M371.599 134.933L371.765 136.723L309.938 148.875L173.991 174.988L141.75 181.211L129.254 183.316C126.577 183.787 123.689 184.179 121.286 185.488L121.107 185.573C119.626 185.664 118.104 184.207 117.009 183.359C117.317 183.377 117.155 183.391 117.544 183.269C126.487 180.457 136.066 179.454 145.27 177.716L202.496 166.963L371.599 134.933Z"/>
	<defs>
		<linearGradient id="gradient_0" gradientUnits="userSpaceOnUse" x1="185.021" y1="435.63901" x2="171.724" y2="539.63599">
			<stop offset="0" stop-color="#2E3010"/>
			<stop offset="1" stop-color="#5A603A"/>
		</linearGradient>
	</defs>
	<path fill="url(#gradient_0)" transform="scale(1.33333 1)" d="M114.533 416.779C115.263 419.552 114.953 422.818 114.938 425.69L116.248 425.361C117.481 427.279 115.677 431.81 117.692 433.073C117.903 433.353 118.049 433.695 118.323 433.912C119.491 434.835 122.858 435.674 124.385 436.271L142.549 443.405L210.457 470.162L250.697 486.071L259.028 489.48L258.327 490.161L257.643 490.7C257.64 492.446 257.318 494.74 258.136 496.297L256.396 496.157C256.368 500.694 256.031 505.519 256.444 510.025C257.024 516.353 258.512 523.127 259.719 529.378L259.471 530.944C255.301 531.439 250.788 530.925 246.562 531.025C241.313 531.149 236.208 532.076 230.914 532.011C229.426 531.992 227.896 532.229 226.606 531.457C223.333 535.454 223.046 541.16 218.997 544.872C218.031 545.759 216.952 546.195 215.625 545.998C213.267 545.648 211.748 543.7 210.405 541.92C213.041 531.691 218.256 522.182 221.745 512.206C222.437 508.258 224.492 504.388 225.953 500.674L232.784 482.765C231.833 481.666 125.969 440.567 114.021 435.907L114.533 416.779Z"/>
	<path fill="#CFE1B9" transform="scale(1.33333 1)" d="M250.697 486.071L259.028 489.48L258.327 490.161L257.643 490.7C257.64 492.446 257.318 494.74 258.136 496.297L256.396 496.157C256.368 500.694 256.031 505.519 256.444 510.025C257.024 516.353 258.512 523.127 259.719 529.378L259.471 530.944C255.301 531.439 250.788 530.925 246.562 531.025C241.313 531.149 236.208 532.076 230.914 532.011C229.426 531.992 227.896 532.229 226.606 531.457L237.438 510.646C238.871 507.713 248.037 488.413 249.654 487.612C250.103 487.168 250.373 486.612 250.697 486.071Z"/>
	<path fill="#E9F5DB" transform="scale(1.33333 1)" d="M250.697 486.071L259.028 489.48L258.327 490.161L257.643 490.7C257.64 492.446 257.318 494.74 258.136 496.297L256.396 496.157L256.172 495.995L256.133 496.404L256 509.889C254.677 510.051 253.273 510.129 252.001 510.528C250 511.157 239.282 511.609 237.756 510.863L237.438 510.646C238.871 507.713 248.037 488.413 249.654 487.612C250.103 487.168 250.373 486.612 250.697 486.071Z"/>
	<path fill="#444B27" transform="scale(1.33333 1)" d="M250.697 486.071L259.028 489.48L258.327 490.161L257.643 490.7C257.64 492.446 257.318 494.74 258.136 496.297L256.396 496.157L256.172 495.995L256.124 489.906C253.837 489.328 251.803 488.584 249.654 487.612C250.103 487.168 250.373 486.612 250.697 486.071Z"/>
	<defs>
		<linearGradient id="gradient_1" gradientUnits="userSpaceOnUse" x1="596.41901" y1="151.354" x2="384.29001" y2="432.48199">
			<stop offset="0" stop-color="#2F2C00"/>
			<stop offset="1" stop-color="#3F4724"/>
		</linearGradient>
	</defs>
	<path fill="url(#gradient_1)" transform="scale(1.33333 1)" d="M352.738 114.691L353.779 116.438C353.518 117.461 353.122 118.115 352.227 118.688C351.258 119.307 349.85 119.51 348.75 119.171C346.884 118.596 345.14 116.617 344.43 114.851C343.595 112.773 343.816 110.961 344.82 108.977C346.134 106.383 348.873 104.816 351.562 103.99C357.821 102.067 365.382 103.697 370.986 106.823C375.308 109.233 378.53 113.09 379.918 117.867C381.206 122.304 381.405 127.223 381.448 131.819L416.625 125.204L426.063 123.288C427.967 122.89 430.135 122.255 432.094 122.448C436.969 122.927 441.892 125.388 446.525 126.907L474.655 135.956L603.739 178.054L639.478 189.774C645.178 191.669 652.156 193.134 657.257 196.265C657.642 196.501 657.729 196.595 658.031 196.858L657.745 369.76L657.649 423.197C657.627 431.127 658.395 439.807 657.474 447.656C652.901 449.562 648.229 450.539 643.412 451.619L624.731 455.678L548.364 472.307L529.951 476.117C524.999 477.098 520.022 477.947 515.215 479.52L523.708 499.744C525.569 504.165 527.86 508.789 529.24 513.37C530.249 516.656 531.419 519.861 532.743 523.034C534.65 527.602 539.968 536.824 537.651 541.599C536.937 543.072 535.938 543.992 534.562 544.825C533.323 544.984 532.249 545.211 531.188 544.382C528.934 542.621 527.294 538.035 526.042 535.43C525.763 534.851 525.327 533.536 524.922 533.16L521.691 527.191L511.765 509.954C508.406 510.076 504.369 509.027 500.986 508.61C497.171 508.139 493.245 508.087 489.479 507.316L487.073 506.828C487.022 505.013 487.912 503.147 487.117 501.472L486.894 493.559L485.724 484.665C482.711 484.428 471.006 487.365 469.689 486.519L651.117 447.626L651.812 316.972C652.331 312.996 652.021 308.589 652.037 304.558L652.102 280.466L652.498 220.214L652.028 198.122C650.927 197.592 649.81 197.247 648.644 196.889L489.09 145.363L448.634 132.221L438.003 128.618C435.459 127.697 432.592 126.315 429.914 126.058C424.016 125.492 417.614 127.718 411.849 128.778C401.584 130.666 390.831 131.769 380.943 135.207L384.037 170.162L383.117 171.564C379.446 172.424 375.063 171.686 371.267 171.876C361.974 172.339 351.938 173.731 342.933 175.983C338.27 177.149 333.92 178.503 329.464 180.309C327.885 180.95 324.336 183.343 322.865 183.187C328.209 178.819 335.742 176.884 342.36 175.41C352.843 173.076 363.489 171.717 374.188 170.853L374.177 170.453C374.278 164.224 373.594 157.898 373.056 151.688L371.765 136.723L371.599 134.933C369.389 129.891 370.457 124.017 367.724 119.016C365.926 115.726 362.922 113.981 359.444 112.947C358.365 112.626 355.936 111.806 354.835 111.86C354.172 111.893 352.093 113.302 351.384 113.674L352.738 114.691Z"/>
	<path fill="#E9F5DB" transform="scale(1.33333 1)" d="M485.724 484.665L486.118 484.606L495.989 482.319L511.765 509.954C508.406 510.076 504.369 509.027 500.986 508.61C497.171 508.139 493.245 508.087 489.479 507.316L487.073 506.828C487.022 505.013 487.912 503.147 487.117 501.472L486.894 493.559L485.724 484.665Z"/>
	<path fill="#718355" transform="scale(1.33333 1)" d="M352.738 114.691C351.341 114.754 349.691 115.066 348.471 114.277C347.922 113.546 347.265 112.721 347.265 111.75C347.265 110.469 348.068 109.727 349.031 109.013C352.564 106.395 357.716 105.671 361.948 106.581C367.255 107.723 373.137 109.911 376.06 114.837C377.703 117.606 378.105 120.979 378.445 124.125C379.355 132.553 378.519 140.958 378.885 149.386L380.369 170.461L375.903 170.727L374.188 170.853L374.177 170.453C374.278 164.224 373.594 157.898 373.056 151.688L371.765 136.723L371.599 134.933C369.389 129.891 370.457 124.017 367.724 119.016C365.926 115.726 362.922 113.981 359.444 112.947C358.365 112.626 355.936 111.806 354.835 111.86C354.172 111.893 352.093 113.302 351.384 113.674L352.738 114.691Z"/>
	<defs>
		<linearGradient id="gradient_2" gradientUnits="userSpaceOnUse" x1="378.75699" y1="123.298" x2="353.97" y2="151.181">
			<stop offset="0" stop-color="#2A2901"/>
			<stop offset="1" stop-color="#41502C"/>
		</linearGradient>
	</defs>
	<path fill="url(#gradient_2)" transform="scale(1.33333 1)" d="M351.384 113.674L350.69 112.875C350.92 111.523 351.341 110.606 352.523 109.818C354.843 108.274 360.403 109.379 362.854 110.181C366.609 111.409 369.827 113.683 371.602 117.291C373.155 120.448 373.722 124.827 374.134 128.292C375.491 139.709 375.621 151.783 375.822 163.285C375.861 165.477 376.33 168.625 375.903 170.727L374.188 170.853L374.177 170.453C374.278 164.224 373.594 157.898 373.056 151.688L371.765 136.723L371.599 134.933C369.389 129.891 370.457 124.017 367.724 119.016C365.926 115.726 362.922 113.981 359.444 112.947C358.365 112.626 355.936 111.806 354.835 111.86C354.172 111.893 352.093 113.302 351.384 113.674Z"/>
	<path fill="#CFE1B9" transform="scale(1.33333 1)" d="M384.037 170.162L380.943 135.207C390.831 131.769 401.584 130.666 411.849 128.778C417.614 127.718 424.016 125.492 429.914 126.058C432.592 126.315 435.459 127.697 438.003 128.618L448.634 132.221L489.09 145.363L648.644 196.889L648.419 197.653C643.765 199.003 638.927 199.843 634.195 200.881L611.326 205.914L549.861 219.276L527.83 224.059C525.001 224.69 521.703 225.09 519.009 226.126C518.924 225.369 518.86 224.653 518.532 223.953C517.698 222.177 513.367 220.226 511.578 219.429C501.747 215.052 490.969 212.228 480.781 208.78C472.302 205.91 463.41 201.929 454.637 200.277C450.477 199.494 445.89 199.824 441.661 199.812C439.343 199.806 437.039 199.971 434.833 199.141L442.827 195.051C444.488 194.042 446.853 192.331 447.295 190.319C447.619 188.841 447.235 187.751 446.434 186.519C439.933 176.521 413.516 172.83 402.629 171.774C396.422 171.171 390.169 171.436 384.037 170.162Z"/>
	<path fill="#CFE1B9" transform="scale(1.33333 1)" d="M121.107 185.573L121.286 185.488C123.689 184.179 126.577 183.787 129.254 183.316L141.75 181.211L173.991 174.988L309.938 148.875L371.765 136.723L373.056 151.688C373.594 157.898 374.278 164.224 374.177 170.453L374.188 170.853C363.489 171.717 352.843 173.076 342.36 175.41C335.742 176.884 328.209 178.819 322.865 183.187C324.336 183.343 327.885 180.95 329.464 180.309C333.92 178.503 338.27 177.149 342.933 175.983C351.938 173.731 361.974 172.339 371.267 171.876C375.063 171.686 379.446 172.424 383.117 171.564L384.037 170.162C390.169 171.436 396.422 171.171 402.629 171.774C413.516 172.83 439.933 176.521 446.434 186.519C447.235 187.751 447.619 188.841 447.295 190.319C446.853 192.331 444.488 194.042 442.827 195.051L434.833 199.141C437.039 199.971 439.343 199.806 441.661 199.812C445.89 199.824 450.477 199.494 454.637 200.277C463.41 201.929 472.302 205.91 480.781 208.78C490.969 212.228 501.747 215.052 511.578 219.429C513.367 220.226 517.698 222.177 518.532 223.953C518.86 224.653 518.924 225.369 519.009 226.126L518.912 226.504C518.112 229.124 518.292 231.888 518.23 234.596L517.802 244.511C517.559 249.307 516.288 255.63 517.195 260.326C516.48 262.891 515.797 265.357 514.627 267.758C513.897 268.782 512.779 269.925 511.64 270.481C508.113 272.2 503.51 272.665 499.697 273.468L484.216 276.755L481.775 273.912C479.62 270.813 479.692 268.792 480.303 265.073L479.845 264.552L481.357 258.662C481.969 256.876 482.486 255.195 482.62 253.302L482.77 251.734C483.24 248.888 483.086 245.788 483.165 242.897C483.234 240.378 483.579 237.576 482.92 235.125C481.896 234.088 480.837 233.189 479.297 233.173C478.257 233.162 477.056 233.98 476.062 234.273C474.631 234.695 473.04 234.853 471.567 235.083L443.641 240.135L411.551 246.96C406.961 247.889 400.865 249.978 396.257 249.476C390.493 250.098 384.362 251.883 378.683 253.172L378.484 253.431L355.445 258.461C352.856 258.999 349.387 260.151 346.781 259.987C344.46 259.842 341.752 258.612 339.59 257.807L328.915 253.92L308.898 247.457L251.625 228.813L198.217 211.949L142.825 193.089L130.875 189.013C127.629 187.837 124.451 186.451 121.107 185.573Z"/>
	<path fill="#3A3D12" transform="scale(1.33333 1)" d="M320.266 186.409L320.63 187.688L320.814 188.428C321.628 191.318 326.261 193.865 328.772 195.082C337.894 199.503 348.839 201.263 358.823 202.615C365.673 203.542 372.62 204.614 379.522 205.02C391.939 205.751 404.858 205.059 417.165 203.348C418.868 203.111 419.892 203.116 421.391 204.006L421.683 204.921L426.585 206.211C430.22 207.682 433.674 208.078 437.435 208.94L438.358 209.103C436.594 209.497 434.869 210.345 433.715 211.773L462.085 223.192C469.756 226.214 478.137 228.934 485.221 233.148C483.494 240.548 484.087 248.2 482.923 255.692C482.427 258.888 481.17 261.963 480.303 265.073L479.845 264.552L481.357 258.662C481.969 256.876 482.486 255.195 482.62 253.302L482.77 251.734C483.24 248.888 483.086 245.788 483.165 242.897C483.234 240.378 483.579 237.576 482.92 235.125C481.896 234.088 480.837 233.189 479.297 233.173C478.257 233.162 477.056 233.98 476.062 234.273C474.631 234.695 473.04 234.853 471.567 235.083L443.641 240.135L411.551 246.96C406.961 247.889 400.865 249.978 396.257 249.476L474.097 232.419L431.434 213.999C425.631 211.47 419.562 207.735 413.325 206.548C405.737 205.105 397.771 206.29 390.095 206.382C372.026 206.596 352.614 204.881 335.455 198.962C330.915 197.396 322.387 194.231 320.284 189.453C319.744 188.226 319.83 187.662 320.266 186.409Z"/>
	<path fill="#CFE1B9" transform="scale(1.33333 1)" d="M433.715 211.773L431.995 211.312C429.06 210.41 419.467 207.943 418.039 205.312L418.478 204.692C419.76 204.25 420.387 204.598 421.683 204.921L426.585 206.211C430.22 207.682 433.674 208.078 437.435 208.94L438.358 209.103C436.594 209.497 434.869 210.345 433.715 211.773Z"/>
	<path fill="#E9F5DB" transform="scale(1.33333 1)" d="M434.833 199.141C437.039 199.971 439.343 199.806 441.661 199.812C445.89 199.824 450.477 199.494 454.637 200.277C463.41 201.929 472.302 205.91 480.781 208.78C490.969 212.228 501.747 215.052 511.578 219.429C513.367 220.226 517.698 222.177 518.532 223.953C518.86 224.653 518.924 225.369 519.009 226.126L518.912 226.504C518.112 229.124 518.292 231.888 518.23 234.596L517.802 244.511C517.559 249.307 516.288 255.63 517.195 260.326C516.48 262.891 515.797 265.357 514.627 267.758C513.897 268.782 512.779 269.925 511.64 270.481C508.113 272.2 503.51 272.665 499.697 273.468L484.216 276.755L481.775 273.912C479.62 270.813 479.692 268.792 480.303 265.073C481.17 261.963 482.427 258.888 482.923 255.692C484.087 248.2 483.494 240.548 485.221 233.148C478.137 228.934 469.756 226.214 462.085 223.192L433.715 211.773C434.869 210.345 436.594 209.497 438.358 209.103L437.435 208.94C433.674 208.078 430.22 207.682 426.585 206.211C427.391 205.731 428.105 205.53 429 205.284C427.834 204.929 427.783 204.782 427.02 203.811L428.671 203.353C427.409 203.324 426.476 203.302 425.322 202.762C428.596 201.886 431.734 200.496 434.833 199.141Z"/>
	<path fill="#444B27" transform="scale(1.33333 1)" d="M428.671 203.353C431.711 202.916 434.857 202.345 437.931 202.314C442.887 202.266 447.92 203.04 452.863 203.423C449.968 204.559 446.656 205.527 443.922 206.964C442.171 207.734 440.012 208.238 438.358 209.103L437.435 208.94C433.674 208.078 430.22 207.682 426.585 206.211C427.391 205.731 428.105 205.53 429 205.284C427.834 204.929 427.783 204.782 427.02 203.811L428.671 203.353Z"/>
	<path fill="#718355" transform="scale(1.33333 1)" d="M429 205.284C434.03 204.975 439.658 203.772 443.922 206.964C442.171 207.734 440.012 208.238 438.358 209.103L437.435 208.94C433.674 208.078 430.22 207.682 426.585 206.211C427.391 205.731 428.105 205.53 429 205.284Z"/>
	<path fill="#97A97C" transform="scale(1.33333 1)" d="M486.98 233.212L516.017 226.227L514.046 254.665C514.067 256.766 514.064 258.754 513.737 260.836C513.745 262.826 513.258 266.205 514.627 267.758C513.897 268.782 512.779 269.925 511.64 270.481C508.113 272.2 503.51 272.665 499.697 273.468L484.216 276.755L481.775 273.912C479.62 270.813 479.692 268.792 480.303 265.073C481.17 261.963 482.427 258.888 482.923 255.692C484.087 248.2 483.494 240.548 485.221 233.148L486.98 233.212Z"/>
	<path fill="#CFE1B9" transform="scale(1.33333 1)" d="M494.88 261.442C501.205 259.855 508.678 258.45 514.046 254.665C514.067 256.766 514.064 258.754 513.737 260.836L513.4 260.851C509.772 260.336 503.09 262.944 499.555 264.087L499.374 264.041C497.334 263.603 496.37 262.915 494.88 261.442Z"/>
	<path fill="#B5C99A" transform="scale(1.33333 1)" d="M485.221 233.148L486.98 233.212L486.743 263.956C489.379 262.968 492.112 261.971 494.88 261.442C496.37 262.915 497.334 263.603 499.374 264.041L499.555 264.087C503.09 262.944 509.772 260.336 513.4 260.851L513.737 260.836C513.745 262.826 513.258 266.205 514.627 267.758C513.897 268.782 512.779 269.925 511.64 270.481C508.113 272.2 503.51 272.665 499.697 273.468L484.216 276.755L481.775 273.912C479.62 270.813 479.692 268.792 480.303 265.073C481.17 261.963 482.427 258.888 482.923 255.692C484.087 248.2 483.494 240.548 485.221 233.148Z"/>
	<path fill="#2D3313" transform="scale(1.33333 1)" d="M499.555 264.087C503.09 262.944 509.772 260.336 513.4 260.851L513.402 265.667C509.11 267.778 504.342 269.225 499.5 268.954C498.742 268.255 498.56 267.796 498.275 266.812C498.505 265.587 498.792 265.075 499.555 264.087Z"/>
	<path fill="#718355" transform="scale(1.33333 1)" d="M384.037 170.162C390.169 171.436 396.422 171.171 402.629 171.774C413.516 172.83 439.933 176.521 446.434 186.519C447.235 187.751 447.619 188.841 447.295 190.319C446.853 192.331 444.488 194.042 442.827 195.051L434.833 199.141C431.734 200.496 428.596 201.886 425.322 202.762C426.476 203.302 427.409 203.324 428.671 203.353L427.02 203.811C427.783 204.782 427.834 204.929 429 205.284C428.105 205.53 427.391 205.731 426.585 206.211L421.683 204.921L421.391 204.006C419.892 203.116 418.868 203.111 417.165 203.348C404.858 205.059 391.939 205.751 379.522 205.02C372.62 204.614 365.673 203.542 358.823 202.615C348.839 201.263 337.894 199.503 328.772 195.082C326.261 193.865 321.628 191.318 320.814 188.428L320.63 187.688L320.266 186.409L320.627 185.826C321.288 184.746 321.9 184.015 322.865 183.187C324.336 183.343 327.885 180.95 329.464 180.309C333.92 178.503 338.27 177.149 342.933 175.983C351.938 173.731 361.974 172.339 371.267 171.876C375.063 171.686 379.446 172.424 383.117 171.564L384.037 170.162Z"/>
	<path fill="#4C552F" transform="scale(1.33333 1)" d="M421.391 204.006L427.02 203.811C427.783 204.782 427.834 204.929 429 205.284C428.105 205.53 427.391 205.731 426.585 206.211L421.683 204.921L421.391 204.006Z"/>
	<path fill="#444B27" transform="scale(1.33333 1)" d="M384.037 170.162C390.169 171.436 396.422 171.171 402.629 171.774C413.516 172.83 439.933 176.521 446.434 186.519C447.235 187.751 447.619 188.841 447.295 190.319C446.853 192.331 444.488 194.042 442.827 195.051L434.833 199.141C431.734 200.496 428.596 201.886 425.322 202.762C424.084 202.976 422.945 203.123 421.688 203.119L421.503 202.688C427.905 201.139 433.383 198.943 439.304 196.102C441.891 194.861 444.727 193.34 445.736 190.5C445.476 189.416 445.279 187.842 444.628 186.938C442.338 183.757 438.222 182.104 434.693 180.743C418.502 174.498 400.2 173.473 383.117 171.564L384.037 170.162Z"/>
	<path fill="#87986A" transform="scale(1.33333 1)" d="M114.533 416.779L114.371 391.539L114.333 342.454L115.075 236.577L115.02 207.886L114.778 193.054C114.753 190.173 114.54 187.081 115.282 184.279L117.009 183.359C118.104 184.207 119.626 185.664 121.107 185.573C124.451 186.451 127.629 187.837 130.875 189.013L142.825 193.089L198.217 211.949L251.625 228.813L308.898 247.457L328.915 253.92L339.59 257.807C341.752 258.612 344.46 259.842 346.781 259.987C349.387 260.151 352.856 258.999 355.445 258.461L378.484 253.431L377.961 253.764C375.517 255.267 371.254 255.73 368.429 256.438C362.064 258.032 355.708 259.878 349.25 261.052L349.082 285.864L349.11 286.025L348.952 303.697L348.952 333.765L348.982 432.75L348.377 485.017L347.979 503.527C347.985 505.779 347.696 508.413 348.315 510.579C347.442 510.806 346.603 510.971 345.805 511.4L342.754 511.565C335.224 512.081 327.657 512.223 320.172 511.075C314.326 510.178 308.695 508.317 303.087 506.492L277.217 497.061L259.028 489.48L250.697 486.071L210.457 470.162L142.549 443.405L124.385 436.271C122.858 435.674 119.491 434.835 118.323 433.912C118.049 433.695 117.903 433.353 117.692 433.073C115.677 431.81 117.481 427.279 116.248 425.361L114.938 425.69C114.953 422.818 115.263 419.552 114.533 416.779Z"/>
	<path fill="#718355" transform="scale(1.33333 1)" d="M344.204 274.413L344.22 287.124C345.839 286.822 347.627 286.66 349.082 285.864L349.11 286.025L348.952 303.697L348.952 333.765L348.982 432.75L348.377 485.017L347.979 503.527C347.985 505.779 347.696 508.413 348.315 510.579C347.442 510.806 346.603 510.971 345.805 511.4L342.754 511.565L343.53 349.434L343.838 299.595L343.85 284.424C343.849 281.09 343.717 277.719 344.204 274.413Z"/>
	<defs>
		<linearGradient id="gradient_3" gradientUnits="userSpaceOnUse" x1="69.379303" y1="330.07101" x2="323.21399" y2="208.76199">
			<stop offset="0" stop-color="#1A1E00"/>
			<stop offset="1" stop-color="#434816"/>
		</linearGradient>
	</defs>
	<path fill="url(#gradient_3)" transform="scale(1.33333 1)" d="M114.533 416.779L114.371 391.539L114.333 342.454L115.075 236.577L115.02 207.886L114.778 193.054C114.753 190.173 114.54 187.081 115.282 184.279L117.009 183.359C118.104 184.207 119.626 185.664 121.107 185.573C124.451 186.451 127.629 187.837 130.875 189.013L142.825 193.089L198.217 211.949L251.625 228.813L308.898 247.457L328.915 253.92L339.59 257.807C341.752 258.612 344.46 259.842 346.781 259.987C349.387 260.151 352.856 258.999 355.445 258.461L378.484 253.431L377.961 253.764C375.517 255.267 371.254 255.73 368.429 256.438C362.064 258.032 355.708 259.878 349.25 261.052L349.082 285.864C347.627 286.66 345.839 286.822 344.22 287.124L344.204 274.413C344.231 271.474 344.64 267.962 344.08 265.098L120.012 188.915L119.909 234.447L119.072 268.551L119.176 321.218L118.555 389.459L118.485 416.341L118.456 426.514C118.446 428.6 118.49 431.129 117.692 433.073C115.677 431.81 117.481 427.279 116.248 425.361L114.938 425.69C114.953 422.818 115.263 419.552 114.533 416.779Z"/>
	<path fill="#B5C99A" transform="scale(1.33333 1)" d="M648.644 196.889C649.81 197.247 650.927 197.592 652.028 198.122L652.498 220.214L652.102 280.466L652.037 304.558C652.021 308.589 652.331 312.996 651.812 316.972L651.117 447.626L469.689 486.519C467.273 486.909 441.218 491.991 440.959 492.229L373.175 505.603L358.849 508.32C355.348 508.95 351.698 509.461 348.315 510.579C347.696 508.413 347.985 505.779 347.979 503.527L348.377 485.017L348.982 432.75L348.952 333.765L348.952 303.697L349.11 286.025L349.082 285.864L349.25 261.052C355.708 259.878 362.064 258.032 368.429 256.438C371.254 255.73 375.517 255.267 377.961 253.764L378.484 253.431L378.683 253.172C384.362 251.883 390.493 250.098 396.257 249.476C400.865 249.978 406.961 247.889 411.551 246.96L443.641 240.135L471.567 235.083C473.04 234.853 474.631 234.695 476.062 234.273C477.056 233.98 478.257 233.162 479.297 233.173C480.837 233.189 481.896 234.088 482.92 235.125C483.579 237.576 483.234 240.378 483.165 242.897C483.086 245.788 483.24 248.888 482.77 251.734L482.62 253.302C482.486 255.195 481.969 256.876 481.357 258.662L479.845 264.552L480.303 265.073C479.692 268.792 479.62 270.813 481.775 273.912L484.216 276.755L499.697 273.468C503.51 272.665 508.113 272.2 511.64 270.481C512.779 269.925 513.897 268.782 514.627 267.758C515.797 265.357 516.48 262.891 517.195 260.326C516.288 255.63 517.559 249.307 517.802 244.511L518.23 234.596C518.292 231.888 518.112 229.124 518.912 226.504L519.009 226.126C521.703 225.09 525.001 224.69 527.83 224.059L549.861 219.276L611.326 205.914L634.195 200.881C638.927 199.843 643.765 199.003 648.419 197.653L648.644 196.889Z"/>
	<path fill="#444B27" transform="scale(1.33333 1)" d="M517.195 260.326L518.283 260.293C518.195 263.857 517.368 267.307 514.651 269.812C511.473 272.744 506.388 273.522 502.315 274.546C496.371 276.041 490.442 277.656 484.312 278.175C482.391 277.352 481.688 276.477 480.893 274.547L480.374 273.188L480.157 272.624C479.115 269.812 479.316 267.407 479.845 264.552L480.303 265.073C479.692 268.792 479.62 270.813 481.775 273.912L484.216 276.755L499.697 273.468C503.51 272.665 508.113 272.2 511.64 270.481C512.779 269.925 513.897 268.782 514.627 267.758C515.797 265.357 516.48 262.891 517.195 260.326Z"/>
	<path fill="#3A3D12" transform="scale(1.33333 1)" d="M520.772 396.898C522.33 396.73 523.687 396.651 525.239 396.895L525.686 397.688C525.564 398.515 525.517 399.24 524.971 399.915C524.436 400.578 492.205 403.071 488.717 403.426L484.688 403.473C483.766 403.231 483.644 402.955 483.264 402.188L483.562 401.353C485.93 400.134 488.707 400.101 491.316 399.875L502.548 398.911L520.772 396.898Z"/>
	<defs>
		<linearGradient id="gradient_4" gradientUnits="userSpaceOnUse" x1="557.89203" y1="356.97101" x2="548.83002" y2="363.09601">
			<stop offset="0" stop-color="#6D7147"/>
			<stop offset="1" stop-color="#94A26E"/>
		</linearGradient>
	</defs>
	<path fill="url(#gradient_4)" transform="scale(1.33333 1)" d="M558.184 302.062L558.559 302.812C557.263 304.058 556.426 305.69 555.43 307.173C553.624 309.861 551.507 312.759 550.488 315.848L548.21 323.062C547.371 326.392 546.694 330.31 546.759 333.75C546.862 339.201 547.162 344.911 548.254 350.25C550.724 362.32 557.433 375.33 565.855 384.344C567.389 385.984 569.253 387.292 570.855 388.871L570.495 389.062L567.592 386.952C555.099 377.002 547.367 362.984 545.737 347.062C544.465 334.628 546.777 320.474 552.652 309.358C553.702 307.372 554.998 305.77 556.247 303.938C556.902 302.977 557.204 302.705 558.184 302.062Z"/>
	<path fill="#E9F5DB" transform="scale(1.33333 1)" d="M383.692 327.216C387.547 324.398 392.127 323.066 396.601 321.599C404.442 319.026 414.38 322.688 421.373 326.289C429.261 330.351 435.85 337.291 438.411 345.902C440.456 352.779 440.56 360.719 439.694 367.802C439.322 370.843 438.794 374.095 437.277 376.801C436.91 377.456 436.571 377.834 435.93 378.247L435.168 378.012C436.817 371.498 436.907 364.917 436.932 358.247C436.94 356.265 437.2 353.855 436.818 351.938C435.771 346.683 427.259 349.385 424.208 346.776C423.617 346.27 423.773 345.726 423.695 344.989C424.624 341.687 422.353 336.506 420.732 333.559C417.973 328.544 413.746 326.141 408.414 324.562C403.372 323.07 395.4 323.354 390.472 325.226C389.047 325.768 386.329 327.494 384.938 327.603C384.504 327.637 384.107 327.345 383.692 327.216Z"/>
	<defs>
		<linearGradient id="gradient_5" gradientUnits="userSpaceOnUse" x1="581.44299" y1="316.026" x2="635.87097" y2="307.69901">
			<stop offset="0" stop-color="#D7DDC7"/>
			<stop offset="1" stop-color="white"/>
		</linearGradient>
	</defs>
	<path fill="url(#gradient_5)" transform="scale(1.33333 1)" d="M593.154 285.562C594.324 285.531 594.994 285.7 596.062 285.879C597.322 286.091 598.681 285.779 599.956 286.007L603.001 286.553L608.627 287.971C609.193 288.118 609.498 288.144 610.022 288.441C610.679 288.813 610.321 288.657 611.053 288.919C612.98 289.61 615.58 290.805 617.285 291.939L622.312 295.309C623.669 296.054 624.658 297.293 625.875 298.276C626.34 298.652 626.715 298.892 627.031 299.402C627.694 300.47 628.701 301.303 629.469 302.303C638.344 313.867 640.615 325.161 638.646 339.546C636.309 333.189 637.449 326.327 634.688 319.934C632.809 318.385 627.307 318.914 624.785 318.895C624.715 316.159 624.566 313.637 623.857 310.972C621.97 303.878 617.31 296.512 610.765 292.923C603.219 288.785 593.619 288.003 585.283 289.745C582.784 290.267 580.321 291.167 577.875 291.904C577.106 291.66 576.57 291.435 575.964 290.906L575.439 290.436L573.627 291.236L573.064 291C573.581 290.059 574.681 289.79 575.625 289.309L579.221 287.787L580.312 287.434C580.855 287.204 580.93 287.04 581.576 287.037L582 287.059L582.559 286.688L583.688 286.684C584.538 286.495 584.799 286.27 585.781 286.297L586.125 286.309C587.423 285.446 590.993 285.971 592.787 285.637L593.154 285.562Z"/>
	<path fill="#718355" transform="scale(1.33333 1)" d="M624.385 335.556C624.932 337.694 624.813 339.934 624.812 342.126C624.806 349.84 623.139 356.915 619.183 363.598C614.563 371.402 608.086 376.526 599.353 378.938C594.879 380.173 589.481 379.998 585.145 378.273C577.003 375.033 570.653 370.029 566.003 362.511C561.568 355.34 560.158 346.335 562.1 338.133C564.158 329.445 569.406 322.388 576.998 317.72C584.888 312.868 595.728 310.619 604.79 312.9C608.028 313.715 610.966 315.269 613.565 317.343C620.008 322.172 623.094 327.635 624.385 335.556Z"/>
	<path fill="#444B27" transform="scale(1.33333 1)" d="M613.565 317.343C620.008 322.172 623.094 327.635 624.385 335.556C624.405 337.621 624.362 339.566 624.074 341.618C623.155 337.325 622.182 333.062 620.358 329.044C619.293 326.698 618.02 324.399 616.628 322.234C615.611 320.653 613.889 319.156 613.565 317.343Z"/>
	<path fill="#87986A" transform="scale(1.33333 1)" d="M396.257 249.476C400.865 249.978 406.961 247.889 411.551 246.96L443.641 240.135L471.567 235.083C473.04 234.853 474.631 234.695 476.062 234.273C477.056 233.98 478.257 233.162 479.297 233.173C480.837 233.189 481.896 234.088 482.92 235.125C483.579 237.576 483.234 240.378 483.165 242.897C483.086 245.788 483.24 248.888 482.77 251.734L482.62 253.302C482.486 255.195 481.969 256.876 481.357 258.662C479.99 258.177 478.405 258.595 477.009 258.866L442.875 266.131L381.68 278.967L360.57 283.371C357.117 284.069 352.742 284.505 349.489 285.844L349.11 286.025L349.082 285.864L349.25 261.052C355.708 259.878 362.064 258.032 368.429 256.438C371.254 255.73 375.517 255.267 377.961 253.764L378.484 253.431L378.683 253.172C384.362 251.883 390.493 250.098 396.257 249.476Z"/>
	<path fill="#87986A" transform="scale(1.33333 1)" d="M648.644 196.889C649.81 197.247 650.927 197.592 652.028 198.122L652.498 220.214L652.102 280.466L652.037 304.558C652.021 308.589 652.331 312.996 651.812 316.972C651.337 313.598 651.671 309.735 651.673 306.309L651.691 285.247L651.949 223.79L585.784 238.33L519.673 253.005L518.722 253.212L518.283 260.293L517.195 260.326C516.288 255.63 517.559 249.307 517.802 244.511L518.23 234.596C518.292 231.888 518.112 229.124 518.912 226.504L519.009 226.126C521.703 225.09 525.001 224.69 527.83 224.059L549.861 219.276L611.326 205.914L634.195 200.881C638.927 199.843 643.765 199.003 648.419 197.653L648.644 196.889Z"/>
	<path fill="#718355" transform="scale(1.33333 1)" d="M519.673 253.005L518.812 252.303L518.876 251.438C519.064 251.162 519.144 250.769 519.438 250.612C520.166 250.225 522.193 250.212 523.078 250.107L530.871 248.919L560.816 242.738C563.706 242.047 583.508 237.449 584.807 237.733C585.18 237.815 585.458 238.131 585.784 238.33L519.673 253.005Z"/>
	<path fill="#4C552F" transform="scale(1.33333 1)" d="M648.419 197.653L649.398 198.188C647.637 199.606 644.01 200.242 641.808 200.778L614.273 206.838L559.5 219.015L537.103 224.012C533.013 225.04 529.036 226.495 524.903 227.361C523.058 227.748 521.271 228.147 519.375 227.943C518.915 227.288 518.981 227.251 518.912 226.504L519.009 226.126C521.703 225.09 525.001 224.69 527.83 224.059L549.861 219.276L611.326 205.914L634.195 200.881C638.927 199.843 643.765 199.003 648.419 197.653Z"/>
	<path fill="#97A97C" transform="scale(1.33333 1)" d="M383.692 327.216C384.107 327.345 384.504 327.637 384.938 327.603C386.329 327.494 389.047 325.768 390.472 325.226C395.4 323.354 403.372 323.07 408.414 324.562C413.746 326.141 417.973 328.544 420.732 333.559C422.353 336.506 424.624 341.687 423.695 344.989C423.773 345.726 423.617 346.27 424.208 346.776C427.259 349.385 435.771 346.683 436.818 351.938C437.2 353.855 436.94 356.265 436.932 358.247C436.907 364.917 436.817 371.498 435.168 378.012L431.812 386.341C427.973 394.558 421.215 402.83 412.457 405.947C404.427 408.804 396.455 407.575 388.898 403.91C377.83 398.543 370.298 389.452 366.349 377.893C362.401 366.338 362.914 354.47 368.327 343.487C369.82 340.458 373.63 333.043 376.849 331.95L376.963 331.972L381.019 328.657L381.559 328.312C382.264 327.854 382.911 327.533 383.692 327.216Z"/>
	<path fill="#E9F5DB" transform="scale(1.33333 1)" d="M421.818 377.85C424.45 378.604 427.357 379.197 429.702 380.633L429.62 381.231L425.945 381.852C424.165 381.707 421.125 382.764 419.308 383.178L421.818 377.85Z"/>
	<path fill="#CFE1B9" transform="scale(1.33333 1)" d="M383.692 327.216C384.107 327.345 384.504 327.637 384.938 327.603C386.329 327.494 389.047 325.768 390.472 325.226C395.4 323.354 403.372 323.07 408.414 324.562C413.746 326.141 417.973 328.544 420.732 333.559C422.353 336.506 424.624 341.687 423.695 344.989C422.99 345.13 422.347 345.383 421.712 345.711C420.978 346.09 420.84 346.026 420.05 345.881C417.926 345.493 415.872 344.638 413.759 344.159C408.405 342.947 402.266 342.558 396.947 344.14C390.939 345.928 386.44 349.512 383.026 354.719C381.998 356.288 381.286 358.018 380.306 359.598C380.134 359.874 380.038 360.26 379.742 360.395C378.999 360.734 375.812 360.336 374.812 360.367C371.397 360.475 368.013 361.328 364.702 362.113C365.979 354.97 367.19 347.359 370.617 340.875C372.33 337.633 374.579 334.81 376.849 331.95L376.963 331.972L381.019 328.657L381.559 328.312C382.264 327.854 382.911 327.533 383.692 327.216Z"/>
	<path fill="#B5C99A" transform="scale(1.33333 1)" d="M469.689 486.519C471.006 487.365 482.711 484.428 485.724 484.665L486.894 493.559L487.117 501.472C487.912 503.147 487.022 505.013 487.073 506.828L489.479 507.316C493.245 508.087 497.171 508.139 500.986 508.61C504.369 509.027 508.406 510.076 511.765 509.954L521.691 527.191L524.922 533.16C525.327 533.536 525.763 534.851 526.042 535.43C527.294 538.035 528.934 542.621 531.188 544.382C532.249 545.211 533.323 544.984 534.562 544.825C535.938 543.992 536.937 543.072 537.651 541.599C539.968 536.824 534.65 527.602 532.743 523.034C531.419 519.861 530.249 516.656 529.24 513.37C529.634 513.041 530.023 512.76 530.501 512.556C533.343 511.345 539.617 512.559 542.722 512.843L593.321 519.214L627.132 523.68L654.375 528.764L684.773 536.045C692.511 538.081 700.313 539.98 707.692 543.137C710.864 544.494 716.542 547.349 717.639 550.905C717.956 551.93 717.832 553.135 717.312 554.062C714.679 558.757 707.172 560.202 702.395 561.447C704.895 562.615 707.583 563.378 710.158 564.371C720.976 568.541 733.95 573.459 740.791 583.372C742.541 585.909 743.836 589.094 743.112 592.209C741.304 599.986 732.451 605.573 725.95 609.188C704.434 621.15 679.682 626.185 655.799 631.019L592.607 641.072L562.995 643.932L517.683 648.067L481.535 649.662L444.097 651.342L388.062 651.392L345.809 651.761L296.812 650.608L250.108 647.521L201.938 644.239L185.503 641.83L156.188 637.516C129.031 633.415 101.949 629.531 75.5121 621.864C62.059 617.962 47.8862 613.211 36.1661 605.393C32.1944 602.744 28.1839 599.56 25.9333 595.244C24.6479 592.779 24.3788 590.469 25.2209 587.827C28.988 576.011 51.7991 566.842 62.1629 561.629C58.274 560.701 53.7256 559.828 50.7594 556.931C49.5005 555.701 48.7057 554.397 48.8074 552.562C48.8894 551.083 49.9381 549.562 50.9514 548.563C55.4286 544.149 62.0037 541.942 67.8719 540.053C85.0442 534.523 103.05 531.343 120.75 528.021L176.598 517.956C191.436 515.565 206.676 511.969 221.745 512.206C218.256 522.182 213.041 531.691 210.405 541.92C211.748 543.7 213.267 545.648 215.625 545.998C216.952 546.195 218.031 545.759 218.997 544.872C223.046 541.16 223.333 535.454 226.606 531.457C227.896 532.229 229.426 531.992 230.914 532.011C236.208 532.076 241.313 531.149 246.562 531.025C250.788 530.925 255.301 531.439 259.471 530.944L259.719 529.378C258.512 523.127 257.024 516.353 256.444 510.025C256.031 505.519 256.368 500.694 256.396 496.157L258.136 496.297C257.318 494.74 257.64 492.446 257.643 490.7L258.327 490.161L259.028 489.48L277.217 497.061L303.087 506.492C308.695 508.317 314.326 510.178 320.172 511.075C327.657 512.223 335.224 512.081 342.754 511.565L345.805 511.4C346.603 510.971 347.442 510.806 348.315 510.579C351.698 509.461 355.348 508.95 358.849 508.32L373.175 505.603L440.959 492.229C441.218 491.991 467.273 486.909 469.689 486.519Z"/>
	<path fill="#CFE1B9" transform="scale(1.33333 1)" d="M488.66 560.501C488.836 559.405 488.939 558.48 489.822 557.7C490.955 556.699 493.595 556.165 495.033 556.459C495.957 556.648 496.058 557.177 496.56 557.915C494.056 558.548 491.092 560.534 488.66 560.501Z"/>
	<path fill="#CFE1B9" transform="scale(1.33333 1)" d="M524.922 533.16C523.098 533.364 521.213 532.833 519.415 532.547C516.96 532.157 514.501 531.95 512.022 531.815C502.215 531.281 492.15 532.019 482.414 530.93L482.181 526.075L499.125 526.193C506.417 526.606 513.828 527.794 521.152 527.235L521.691 527.191L524.922 533.16Z"/>
	<path fill="#97A97C" transform="scale(1.33333 1)" d="M247.65 576.241L247.79 576.927C248.119 578.85 247.134 581.164 246.914 583.107C246.407 587.569 249.214 593.22 252.665 595.963C259 600.998 269.303 602.88 277.183 601.761C281.094 601.206 285.887 599.32 288.335 596.062L289.29 594.673L290.116 594.746C290.872 592.39 290.813 589.617 290.962 587.147L309.487 586.436C314.794 586.305 320.8 585.29 325.689 587.736C323.524 591.94 321.772 597.873 323.241 602.552C324.048 605.123 325.964 607.27 328.37 608.459L332.369 610.054C329.977 611.066 327.041 610.804 324.474 610.825C314.885 610.903 305.189 609.787 295.625 609.107L248.438 605.292C240.779 604.421 232.794 603.804 225.352 601.693C221.54 600.612 217.727 599.099 215.74 595.476C215.519 593.784 215.797 592.594 216.657 591.113C221.66 582.495 237.453 580.81 246.403 578.672C246.71 577.835 247.228 577.028 247.65 576.241Z"/>
	<path fill="#3A3D12" transform="scale(1.33333 1)" d="M247.65 576.241L247.79 576.927C248.119 578.85 247.134 581.164 246.914 583.107C246.407 587.569 249.214 593.22 252.665 595.963C259 600.998 269.303 602.88 277.183 601.761C281.094 601.206 285.887 599.32 288.335 596.062L289.29 594.673L290.116 594.746C289.066 597 288.069 598.619 286.022 600.163C280.606 604.25 271.583 604.237 265.166 603.155C258.735 602.07 251.83 599.228 248.041 593.646C245.019 589.194 245.555 583.692 246.403 578.672C246.71 577.835 247.228 577.028 247.65 576.241Z"/>
	<path fill="#718355" transform="scale(1.33333 1)" d="M469.689 486.519C471.006 487.365 482.711 484.428 485.724 484.665L486.894 493.559L487.117 501.472C487.912 503.147 487.022 505.013 487.073 506.828C486.797 509.27 486.332 511.556 485.631 513.916C485.144 515.001 480.877 522.143 480.868 522.332C480.84 522.927 481.387 524.342 481.54 525C481.827 526.227 481.85 527.425 481.883 528.679L482.371 559.922C484.053 560.038 487.183 559.883 488.66 560.501C491.092 560.534 494.056 558.548 496.56 557.915C502.451 558.573 508.349 559.704 512.291 564.656C516.17 569.529 517.407 575.608 516.945 581.679L517.467 581.814C518.555 582.082 519.661 582.013 520.757 582.288C525.296 583.428 532.385 586.062 534.819 590.366C535.354 591.312 535.552 592.878 535.218 593.917C534.327 596.694 530.934 598.795 528.375 599.927C520.363 603.471 509.993 605.461 501.375 606.726C488.777 608.575 476.002 609.426 463.312 610.367L442.651 611.928L420.682 612.113L400.429 613.023L379.5 613.152C371.616 613.255 363.812 613.743 355.969 612.562C353.98 612.263 351.628 612.082 349.74 611.396L348.763 610.934L347.829 610.72C342.974 611.315 337.137 611.085 332.369 610.054L328.37 608.459C325.964 607.27 324.048 605.123 323.241 602.552C321.772 597.873 323.524 591.94 325.689 587.736C320.8 585.29 314.794 586.305 309.487 586.436L290.962 587.147C290.813 589.617 290.872 592.39 290.116 594.746L289.29 594.673L288.335 596.062C285.887 599.32 281.094 601.206 277.183 601.761C269.303 602.88 259 600.998 252.665 595.963C249.214 593.22 246.407 587.569 246.914 583.107C247.134 581.164 248.119 578.85 247.79 576.927L247.65 576.241L249.697 572.478C252.44 568.143 257.238 566.923 261.929 565.909C260.955 561.769 261.266 557.272 261.239 553.046C261.19 545.29 261.253 537.01 259.719 529.378C258.512 523.127 257.024 516.353 256.444 510.025C256.031 505.519 256.368 500.694 256.396 496.157L258.136 496.297C257.318 494.74 257.64 492.446 257.643 490.7L258.327 490.161L259.028 489.48L277.217 497.061L303.087 506.492C308.695 508.317 314.326 510.178 320.172 511.075C327.657 512.223 335.224 512.081 342.754 511.565L345.805 511.4C346.603 510.971 347.442 510.806 348.315 510.579C351.698 509.461 355.348 508.95 358.849 508.32L373.175 505.603L440.959 492.229C441.218 491.991 467.273 486.909 469.689 486.519Z"/>
	<path fill="#444B27" transform="scale(1.33333 1)" d="M367.157 537.414C368.515 538.046 368.652 538.523 369.436 539.762L369.386 540.17C367.719 540.48 366.423 540.768 364.918 541.55L364.506 541.255L364.633 541.114C365.805 539.877 366.618 539.056 367.157 537.414Z"/>
	<path fill="#181B07" transform="scale(1.33333 1)" d="M267.713 569.968L270.375 569.968L270.526 570.435C269.818 571.611 269.195 572.241 268.094 573.055C267.31 572.927 266.366 572.672 265.688 572.247C264.844 571.719 264.338 571.141 264.164 570.188L267.713 569.968Z"/>
	<path fill="#4C552F" transform="scale(1.33333 1)" d="M484.395 499.022C484.117 497.568 483.781 494.635 484.5 493.39L486.894 493.559L487.117 501.472C486.126 500.807 485.26 499.85 484.395 499.022Z"/>
	<path fill="#181B07" transform="scale(1.33333 1)" d="M427.164 577.992L418.688 576.794C417.925 576.059 417.851 576.103 417.772 575.062L418.5 574.637C422.25 575.064 426.101 575.402 429.749 576.395L430.185 577.319L429.938 577.715C429.21 577.757 427.765 577.65 427.164 577.992Z"/>
	<path fill="#4C552F" transform="scale(1.33333 1)" d="M259.028 489.48L277.217 497.061L276.788 497.586C274.99 497.127 273.284 496.267 271.5 495.731C267.554 494.545 260.971 493.44 258.327 490.161L259.028 489.48Z"/>
	<path fill="#444B27" transform="scale(1.33333 1)" d="M484.395 499.022C485.26 499.85 486.126 500.807 487.117 501.472C487.912 503.147 487.022 505.013 487.073 506.828C486.797 509.27 486.332 511.556 485.631 513.916C485.379 513.626 485.521 513.827 485.325 513.193C485.091 512.432 484.888 512.389 484.308 511.877L484.395 499.022Z"/>
	<path fill="#3A3D12" transform="scale(1.33333 1)" d="M271.535 553.919L272.422 553.557L273.152 578.313L272.625 578.844C270.982 578.277 270.364 577.637 269.601 576.086C269.107 575.083 268.726 573.976 268.094 573.055C269.195 572.241 269.818 571.611 270.526 570.435L270.375 569.968L267.713 569.968C268.792 569.805 270.016 569.77 270.938 569.147C272.245 564.566 271.569 558.67 271.535 553.919Z"/>
	<path fill="#181B07" transform="scale(1.33333 1)" d="M381.511 528.896L395.25 525.012C398.651 524.098 402.167 523.466 405.442 522.142C408.179 521.036 409.265 519.789 410.963 517.485C411.051 517.366 411.08 517.15 411.226 517.127C411.556 517.073 414.111 518.55 414.571 518.812L414.375 519.223L413.902 519.034C412.961 518.664 412.169 518.219 411.14 518.438L410.303 519.562C411.424 520.57 414.13 520.437 415.622 520.811C418.802 521.607 421.894 522.889 425.062 523.757C427.666 524.47 430.603 524.624 433.094 525.562C431.862 526.278 428.511 525.411 427.125 525.091L414.188 521.825L413.135 522.58C412.145 521.597 411.743 520.772 410.234 520.895C408.205 521.061 405.069 523.188 403.013 523.987C403.325 527.917 403.626 531.736 404.522 535.587L403.472 535.988L403.181 535.336C401.697 532.801 402.2 528.092 401.895 525.109L381.919 529.465L381.511 528.896Z"/>
	<path fill="#444B27" transform="scale(1.33333 1)" d="M354.275 542.782C355.772 545.729 355.966 548.993 356.318 552.248C357.011 558.654 357.132 564.905 356.605 571.324C356.372 574.158 356.135 577.305 355.312 580.03C354.355 580.602 354.011 580.422 352.926 580.312L352.53 579.75C352.881 578.433 353.829 575.886 353.232 574.668L353.386 573.62L353.656 573.35C354.361 571.436 354.07 568.441 354.11 566.361C354.253 558.926 354.823 550.731 353.189 543.451L354.275 542.782Z"/>
	<path fill="#3A3D12" transform="scale(1.33333 1)" d="M277.217 497.061L303.087 506.492C308.695 508.317 314.326 510.178 320.172 511.075C327.657 512.223 335.224 512.081 342.754 511.565L345.805 511.4L345.938 512.069L343.713 512.255L343.6 512.52C334.765 513.623 325.064 513.735 316.275 512.115C311.58 511.25 306.964 509.486 302.448 507.968C297.184 506.197 291.864 504.51 286.733 502.378C283.297 500.951 280.316 498.906 276.788 497.586L277.217 497.061Z"/>
	<path fill="#444B27" transform="scale(1.33333 1)" d="M431.96 563.757L431.781 578.244C437.641 580.405 440.946 583.081 443.602 588.85L444.177 590.13C444.733 594.093 445.19 598.619 442.732 602.107C441.827 603.39 440.651 604.327 439.352 605.18C439.078 604.746 439.028 603.981 438.923 603.47C440.381 602.084 441.369 600.905 441.876 598.921C442.846 595.132 441.72 590.316 439.757 587.049C438.138 584.355 435.175 581.544 432.039 580.828L431.629 580.743C428.547 580.084 421.953 580.508 419.697 578.625L419.972 578.062C420.529 577.904 420.851 577.833 421.433 577.921C422.467 578.079 423.469 578.018 424.5 578.122C425.289 578.201 425.792 578.337 426.571 578.148L427.164 577.992C427.765 577.65 429.21 577.757 429.938 577.715L430.185 577.319L429.749 576.395C429.953 576.197 430.267 576.069 430.362 575.801C430.565 575.229 430.397 573.64 430.409 572.974L430.754 564.933L430.691 572.25L431.25 572.809C432.122 571.982 431.709 565.908 431.889 564.339L431.96 563.757Z"/>
	<path fill="#2D3313" transform="scale(1.33333 1)" d="M367.238 534.675C362.781 533.69 356.516 534.627 351.938 535.033C347.363 535.438 342.554 536.626 337.975 536.409C333.835 536.213 329.894 534.739 325.991 533.465C316.885 530.494 308.13 527.116 300.043 521.888L300.188 521.538C309.781 526.447 321.195 532.09 332.062 533.205C341.055 534.127 350.043 532.861 358.976 531.919C366.506 531.126 374.125 530.644 381.511 528.896L381.919 529.465C377.587 530.707 372.049 530.851 368.208 533.211C367.93 533.823 367.885 534.42 367.238 534.675Z"/>
	<path fill="#3A3D12" transform="scale(1.33333 1)" d="M258.136 496.297L258.938 496.016C259.903 498.275 259.58 502.423 259.764 505.001L261.555 533.248L264.106 570.969L261.929 565.909C260.955 561.769 261.266 557.272 261.239 553.046C261.19 545.29 261.253 537.01 259.719 529.378C258.512 523.127 257.024 516.353 256.444 510.025C256.031 505.519 256.368 500.694 256.396 496.157L258.136 496.297Z"/>
	<path fill="#444B27" transform="scale(1.33333 1)" d="M440.959 492.229L441.292 492.667C439.326 494.031 435.566 494.349 433.217 494.868L415.497 498.683L353.467 511.842C350.237 512.378 346.875 512.656 343.6 512.52L343.713 512.255L345.938 512.069L345.805 511.4C346.603 510.971 347.442 510.806 348.315 510.579C351.698 509.461 355.348 508.95 358.849 508.32L373.175 505.603L440.959 492.229Z"/>
	<path fill="#2D3313" transform="scale(1.33333 1)" d="M404.522 535.587L404.676 535.928C405.59 538.145 405.582 540.675 405.66 543.042L405.857 554.625L406.791 581.473C406.829 586.204 406.119 592.199 407.487 596.681L407.624 597.154C408.322 599.381 410.651 601.637 412.728 602.62C418.917 605.548 430.796 606.974 437.165 604.378L438.923 603.47C439.028 603.981 439.078 604.746 439.352 605.18C432.691 607.603 423.503 607.437 416.625 606.07C413.966 605.541 411.291 604.662 409.168 602.914C403.285 598.073 405.017 590.528 404.347 583.873L404.298 583.415L403.472 535.988L404.522 535.587Z"/>
	<path fill="#4C552F" transform="scale(1.33333 1)" d="M381.919 529.465L401.895 525.109C402.2 528.092 401.697 532.801 403.181 535.336L369.386 540.17L369.436 539.762C368.652 538.523 368.515 538.046 367.157 537.414C367.049 536.477 367.144 535.607 367.238 534.675C367.885 534.42 367.93 533.823 368.208 533.211C372.049 530.851 377.587 530.707 381.919 529.465Z"/>
	<path fill="#2D3313" transform="scale(1.33333 1)" d="M271.535 553.919C271.02 546.886 271.116 539.825 271.083 532.777C271.074 530.833 271.551 527.3 271.054 525.512C271.014 525.367 270.042 524.508 269.911 524.378C268.377 522.847 266.937 521.337 265.609 519.622C283.46 533.11 304.537 538.693 326.485 540.762C332.057 541.288 337.715 541.18 343.307 541.154C345.799 541.143 349.984 540.591 352.299 541.334C353.052 541.576 353.714 542.246 354.275 542.782L353.189 543.451C350.768 543.095 348.26 543.266 345.817 543.286L333.589 543.236C319.225 542.889 304.755 540.424 291.001 536.238L290.962 587.147C290.813 589.617 290.872 592.39 290.116 594.746L289.29 594.673C289.964 591.546 289.891 588.435 289.916 585.255L289.451 571.905C288.653 567.117 289.118 561.602 289.091 556.732L288.72 535.342L272.064 527.154L272.422 553.557L271.535 553.919Z"/>
	<path fill="#181B07" transform="scale(1.33333 1)" d="M289.451 571.905C289.616 568.215 288.526 551.207 290.283 549.142C291.193 552.149 290.568 557.045 290.583 560.283C290.622 568.482 291.159 577.106 290.419 585.257L289.916 585.255L289.451 571.905Z"/>
	<defs>
		<linearGradient id="gradient_6" gradientUnits="userSpaceOnUse" x1="359.44901" y1="605.02002" x2="334.89899" y2="559.64099">
			<stop offset="0" stop-color="#212808"/>
			<stop offset="1" stop-color="#384423"/>
		</linearGradient>
	</defs>
	<path fill="url(#gradient_6)" transform="scale(1.33333 1)" d="M364.506 541.255L364.918 541.55C363.425 544.234 361.976 546.822 361.349 549.868C359.837 557.214 360.839 566.081 360.945 573.578C361.007 577.958 360.703 582.694 361.191 587.032C361.333 592.971 362.847 601.53 358.312 606.274C355.618 609.094 351.43 609.732 347.829 610.72C342.974 611.315 337.137 611.085 332.369 610.054L328.37 608.459C325.964 607.27 324.048 605.123 323.241 602.552C321.772 597.873 323.524 591.94 325.689 587.736L326.637 586.312C332.978 577.383 343.27 575.402 353.386 573.62L353.232 574.668C348.144 578.256 341.015 578.576 335.394 581.289C331.151 583.336 328.06 587.472 326.574 591.874C325.384 595.399 324.722 599.968 326.564 603.375C327.907 605.859 331.054 607.002 333.627 607.689C339.45 609.244 349.088 609.415 354.355 606.196C356.562 604.847 357.95 602.318 358.498 599.843L358.619 599.258C359.684 594.285 359.198 588.988 359.116 583.923L358.807 560.331C358.849 555.693 358.626 549.829 360.81 545.625C361.694 543.922 363.154 542.585 364.506 541.255Z"/>
	<path fill="#3A3D12" transform="scale(1.33333 1)" d="M484.308 511.877C484.888 512.389 485.091 512.432 485.325 513.193C485.521 513.827 485.379 513.626 485.631 513.916C485.144 515.001 480.877 522.143 480.868 522.332C480.84 522.927 481.387 524.342 481.54 525C481.827 526.227 481.85 527.425 481.883 528.679L482.371 559.922C484.053 560.038 487.183 559.883 488.66 560.501C491.092 560.534 494.056 558.548 496.56 557.915C502.451 558.573 508.349 559.704 512.291 564.656C516.17 569.529 517.407 575.608 516.945 581.679C516.921 581.685 516.588 583.202 516.547 583.378C515.654 587.255 514.012 592.163 511.321 595.148C506.93 600.022 500.38 602.087 493.984 602.351C486.727 602.651 478.986 601.282 473.547 596.05C471.813 594.382 470.657 592.404 470.117 590.053C469.073 585.501 469.786 579.395 469.794 574.678L469.79 540.086C469.782 538.335 470.121 535.74 469.494 534.14C458.317 533.776 447.666 535.172 436.653 532.235C433.971 542.796 432.748 552.918 431.96 563.757L431.889 564.339C431.709 565.908 432.122 571.982 431.25 572.809L430.691 572.25L430.754 564.933C430.539 557.384 431.731 549.597 433.062 542.188C433.684 538.726 433.929 535.389 434.766 531.915C428.389 529.828 422.564 528.068 416.44 525.245C419.955 525.034 423.692 526.509 427.04 527.395C432.527 528.848 438.315 530.398 443.919 531.275C453.291 532.741 462.672 531.81 472.082 531.3C472.213 534.763 471.818 538.227 471.796 541.695L471.726 569.216L471.692 582.715C471.725 585.534 471.758 589.165 473.052 591.742C474.931 595.485 479.919 598.025 483.841 599.108C490.762 601.02 498.661 600.779 504.968 597.056C509.793 594.208 512.422 589.499 513.856 584.252C514.389 582.303 514.526 580.581 514.529 578.568C514.536 573.392 513.079 568.743 509.324 565.073C504.807 560.66 498.188 559.405 492.188 560.987C490.762 561.363 489.419 562.105 487.954 562.328C486.038 562.619 483.9 562.531 481.956 562.554L481.442 574.125C480.722 575.031 480.753 575.051 479.625 575.279C478.709 573.889 479.243 568.712 479.248 566.86L479.636 537.591C479.663 534.193 480.224 528.619 478.892 525.562C478.531 524.734 478.331 524.61 477.562 524.268C475.191 524.789 472.958 526.036 470.766 527.07C474.087 523.857 478.237 521.527 481.128 517.909C482.587 516.084 483.472 514.034 484.308 511.877Z"/>
	<path fill="#B5C99A" transform="scale(1.33333 1)" d="M431.96 563.757C432.748 552.918 433.971 542.796 436.653 532.235C447.666 535.172 458.317 533.776 469.494 534.14C470.121 535.74 469.782 538.335 469.79 540.086L469.483 540.75C469.289 541.334 469.443 542.491 469.441 543.12L469.433 549.999L469.375 586.878C462.624 586.893 455.862 586.744 449.181 587.853L448.666 587.931C447.013 588.2 445.408 588.998 444.177 590.13L443.602 588.85C440.946 583.081 437.641 580.405 431.781 578.244L431.96 563.757Z"/>
	<path fill="#B5C99A" transform="scale(1.33333 1)" d="M369.386 540.17L403.181 535.336L403.472 535.988L404.298 583.415L404.124 588.824L361.917 590.062C361.403 589.083 361.485 588.079 361.191 587.032C360.703 582.694 361.007 577.958 360.945 573.578C360.839 566.081 359.837 557.214 361.349 549.868C361.976 546.822 363.425 544.234 364.918 541.55C366.423 540.768 367.719 540.48 369.386 540.17Z"/>
	<path fill="#B5C99A" transform="scale(1.33333 1)" d="M290.962 587.147L291.001 536.238C304.755 540.424 319.225 542.889 333.589 543.236L345.817 543.286C348.26 543.266 350.768 543.095 353.189 543.451C354.823 550.731 354.253 558.926 354.11 566.361C354.07 568.441 354.361 571.436 353.656 573.35L353.386 573.62C343.27 575.402 332.978 577.383 326.637 586.312L325.689 587.736C320.8 585.29 314.794 586.305 309.487 586.436L290.962 587.147Z"/>
	<path fill="#97A97C" transform="scale(1.33333 1)" d="M444.177 590.13C445.408 588.998 447.013 588.2 448.666 587.931L449.181 587.853C455.862 586.744 462.624 586.893 469.375 586.878L469.433 549.999L469.441 543.12C469.443 542.491 469.289 541.334 469.483 540.75L469.79 540.086L469.794 574.678C469.786 579.395 469.073 585.501 470.117 590.053C470.657 592.404 471.813 594.382 473.547 596.05C478.986 601.282 486.727 602.651 493.984 602.351C500.38 602.087 506.93 600.022 511.321 595.148C514.012 592.163 515.654 587.255 516.547 583.378C516.588 583.202 516.921 581.685 516.945 581.679L517.467 581.814C518.555 582.082 519.661 582.013 520.757 582.288C525.296 583.428 532.385 586.062 534.819 590.366C535.354 591.312 535.552 592.878 535.218 593.917C534.327 596.694 530.934 598.795 528.375 599.927C520.363 603.471 509.993 605.461 501.375 606.726C488.777 608.575 476.002 609.426 463.312 610.367L442.651 611.928L420.682 612.113L400.429 613.023L379.5 613.152C371.616 613.255 363.812 613.743 355.969 612.562C353.98 612.263 351.628 612.082 349.74 611.396L348.763 610.934L347.829 610.72C351.43 609.732 355.618 609.094 358.312 606.274C362.847 601.53 361.333 592.971 361.191 587.032C361.485 588.079 361.403 589.083 361.917 590.062L404.124 588.824L404.298 583.415L404.347 583.873C405.017 590.528 403.285 598.073 409.168 602.914C411.291 604.662 413.966 605.541 416.625 606.07C423.503 607.437 432.691 607.603 439.352 605.18C440.651 604.327 441.827 603.39 442.732 602.107C445.19 598.619 444.733 594.093 444.177 590.13Z"/>
</svg>
