<?xml version="1.0" encoding="utf-8"?>
<!-- Generator: Adobe Illustrator 26.2.1, SVG Export Plug-In . SVG Version: 6.00 Build 0)  -->
<svg version="1.1" id="圖層_1" xmlns="http://www.w3.org/2000/svg" xmlns:xlink="http://www.w3.org/1999/xlink" x="0px" y="0px"
	 viewBox="0 0 976.3 591.7" style="enable-background:new 0 0 976.3 591.7;" xml:space="preserve">
<style type="text/css">
	.st0{fill:#3E4014;}
	.st1{fill:#444B26;}
	.st2{fill:#738456;}
	.st3{fill:url(#SVGID_1_);}
	.st4{fill:#35350B;}
	.st5{fill:#E6F1D5;fill-opacity:0.6706;}
	.st6{fill:#D0E1B9;fill-opacity:5.098039e-02;}
	.st7{fill:url(#SVGID_00000018958287138577572060000005981624691660191121_);}
	.st8{fill:#D0E1B9;fill-opacity:0.7098;}
	.st9{fill:#D0E1B9;fill-opacity:0.7608;}
	.st10{fill:#D0E1B9;fill-opacity:0.8549;}
	.st11{fill:#D0E1B9;fill-opacity:0.8667;}
	.st12{fill:#48502C;}
	.st13{fill:#D0E1B9;fill-opacity:0.7882;}
	.st14{fill:#E6F1D5;fill-opacity:0.9765;}
	.st15{fill:#ECF4DF;fill-opacity:0.851;}
	.st16{fill:#D0E1B9;}
	.st17{fill:#8A9B6C;}
	.st18{fill:#D0E1B9;fill-opacity:0.9882;}
	.st19{fill:url(#SVGID_00000045582522066850179890000010397740012122273434_);}
	.st20{fill:#D0E1B9;fill-opacity:0.9451;}
	.st21{fill:#D0E1B9;fill-opacity:0.9059;}
	.st22{fill:#E6F1D5;}
	.st23{fill:url(#SVGID_00000168797245119749851780000001428588210744813717_);}
	.st24{fill:#E6F1D5;fill-opacity:0.2314;}
	.st25{fill:url(#SVGID_00000052826775160794340480000010958856366203369917_);}
	.st26{fill:#B7C99A;}
	.st27{fill:url(#SVGID_00000166642485673955478170000010058564176759050668_);}
	.st28{fill:#E6F1D5;fill-opacity:0.9843;}
	.st29{fill:url(#SVGID_00000178180560134301666720000007981351129759988886_);}
	.st30{fill:#ECF4DF;}
	.st31{fill:#B7C99A;fill-opacity:0.9804;}
	.st32{fill:#1D2508;}
	.st33{fill:url(#SVGID_00000065062526620315939730000006779274097125245370_);}
	.st34{fill:url(#SVGID_00000011737973029206758210000016084071230056439170_);}
</style>
<path class="st0" d="M445.9,23.6c1.1,0.9,1.3,1.3,1.8,2.6c-0.6,1.5-0.8,1.7-2.2,2.3c-1.6,0.7-3.6,0.8-5.2,0.1
	c-1.7-0.7-4.2-2.7-4.9-4.5c-0.6-1.6-0.5-3.7,0.3-5.2c1.6-3.1,5.9-4.9,9.1-5.7c9.2-2.3,21.5-0.4,29.6,4.8c4.3,2.7,8.1,7.1,9.2,12.3
	l1.5,11.3l56.1-8.2l-0.3,2.6c-2.5,0.7-5.1,0.7-7.7,1.1l-13.9,2.2c-2.5,0.3-5.5,0.3-7.9,1.1c-3.8,0.4-7.8,0.7-11.5,1.7
	c-5.1,0.6-10.4,1.6-15.3,3.1c-0.6,1.1-0.5,1.8-0.3,3l2.2,20.6c0.4,3.6,1.2,7.5,1.1,11.1l-0.1,2.6c-0.7-0.1-1.2-0.1-2,0.2
	c-3.1,1.2-6.4,1-9.7,0.7l-0.3-1.6l1.7,0.6c1.9,0,4.1,0.4,5.8-0.8l-2-44.6c-0.4-6-1.3-10.8-5.9-14.9c-6.2-5.5-16.9-6.7-24.8-6.1
	c-3.6,0.3-8.6,1.4-11,4.4c0,1.7,0.4,1.8,1.5,3c1.6,0.7,2.8,0.5,4.4,0.3L445.9,23.6z"/>
<path class="st1" d="M131.9,95.6c2.4-1,5.6-1.3,8.2-1.8c9.5-1.9,19.2-2.8,28.8-4.1l69.5-10.1l149.9-22.2l60.9-9
	c0.5,0.5,1,0.9,1.4,1.5l-71.3,11L354,64.7c-5.1,0.7-10.4,1-15.4,2.3l-26.5,3.8l-95.8,14.4l-31.8,4.7l-21.1,3.2
	c-4.8,0.7-22.3,1.8-25,4.5c-0.7-0.2-1.2-0.3-1.9-0.3C134.2,97.3,133.5,97,131.9,95.6z"/>
<path class="st2" d="M445.9,23.6l-0.7,0.1c-1.7,0.2-2.8,0.4-4.4-0.3c-1-1.2-1.5-1.4-1.5-3c2.4-3,7.4-4.1,11-4.4
	c7.8-0.6,18.6,0.6,24.8,6.1c4.6,4.1,5.5,8.9,5.9,14.9l2,44.6c-1.6,1.1-3.8,0.7-5.8,0.8l-1.7-0.6l-3.7-35l-4.8,0.9
	c-1.4,0.2-2.7,0.5-4,0.8l0.4,0.4l-1.2,0.3c-2.9-1.2-8.5,0.3-11.7,0.8c-0.4-0.6-0.9-1-1.4-1.5c2.2-0.6,4.7-0.7,7-1.1l15-2.2
	c-1.6-4.9-1.8-11.8-4.6-16c-3.4-5.1-10.4-6.7-16-7.6c-2.2-0.3-2.7,0.4-4.4,1.7L445.9,23.6z"/>
<linearGradient id="SVGID_1_" gradientUnits="userSpaceOnUse" x1="240.1255" y1="877.4233" x2="222.5175" y2="858.2814" gradientTransform="matrix(1.3333 0 0 -1.3814 156.955 1245.0649)">
	<stop  offset="0" style="stop-color:#2F2D03"/>
	<stop  offset="1" style="stop-color:#43532E"/>
</linearGradient>
<path class="st3" d="M446.2,23.3l-1.9-0.1l-0.5-0.9c0.6-1.8,1.1-2.6,2.8-3.6c3.7-2.1,13.1,0.3,16.8,1.9c4.1,1.7,7.5,4.2,9.3,8.5
	c2,4.6,2.4,10,3,15c1.4,12.7,1.4,25.5,1.5,38.3l-1.7-0.6l-3.7-35l-4.8,0.9c-1.4,0.2-2.7,0.5-4,0.8l0.4,0.4l-1.2,0.3
	c-2.9-1.2-8.5,0.3-11.7,0.8c-0.4-0.6-0.9-1-1.4-1.5c2.2-0.6,4.7-0.7,7-1.1l15-2.2c-1.6-4.9-1.8-11.8-4.6-16
	c-3.4-5.1-10.4-6.7-16-7.6C448.3,21.2,447.8,22,446.2,23.3z"/>
<path class="st4" d="M541.1,33.4c4.9-0.6,9.6-1.6,14.5-0.7c6.6,1.2,13.2,3.4,19.7,5.1l35.5,8.9l122.3,31l72.1,18.3l26.8,6.8
	c7.3,1.9,14.1,3.5,21.1,6.3L853,293.8l0,49.2c0,8.4,1,17.9-0.4,26.1c-11.5,3.3-23.2,4.7-34.9,6.7l-80,13.6l-2.2-0.1l-0.8-1.5
	l109.7-18.5c1-5.5,0.6-11.3,0.6-16.8l0-31.4l0.5-108.4l0.7-24.4l0.5-51.1c0.6-4.3,0-9.2-0.1-13.5c0-2.4,0.3-5.6-0.4-7.8
	c-0.5-1.8-0.6-3.7-0.8-5.5c-2-0.8-4.8-2.1-6.9-1.4c-2.6,1.8-5.5,1-8.4,1.6c-2.1,0.5-4.3,1.3-6.5,1.9l-0.3,0.2
	c-2.5,1.1-5.6,1.3-8.3,1.8c-3.9,0.7-7.8,1.6-11.7,1.9l-9.2-0.3l6.6-6.1l0.2-0.2l0.1-0.3c0.9-1,1.8-1.6,3.1-2l0.3-0.1l-0.2-1.3
	c-1.5-0.7-2.2-1.2-3-2.7l-0.2-0.4c0.2-0.7-0.2-1.2-0.4-1.8c-2.3-1.7-3-1.3-5.6-1.6c-1.9-0.2-2.4-1.5-3.4-2.9l-10.1-2.5l-4.5-1.2
	l-55.7-13.9L579.3,43.3L562.4,39c-3.6-1-7.6-2.6-11.3-3.1c-3.5-0.5-6.9-0.2-10.3,0.1L541.1,33.4z M791.5,96.7c1,1.4,1.5,2.7,3.4,2.9
	c2.6,0.3,3.3-0.2,5.6,1.6c0.2,0.7,0.6,1.2,0.4,1.8l0.2,0.4c0.8,1.5,1.5,2,3,2.7l0.2,1.3l-0.3,0.1c-1.3,0.4-2.1,1-3.1,2l-0.1,0.3
	l-0.2,0.2l-6.6,6.1l9.2,0.3c3.9-0.3,7.8-1.2,11.7-1.9c2.7-0.5,5.8-0.7,8.3-1.8l-3.8,0.3l-0.9-0.4c1.4-1.1,1.9-2.3,2.7-3.9
	c-0.4-1.8-0.4-2.3-1.6-3.7l0.8-0.6l0-0.1l-9.4-2.4C805.2,99.2,797.5,98.2,791.5,96.7z M820.4,104.3l-0.8,0.6
	c1.2,1.4,1.3,1.9,1.6,3.7c-0.8,1.6-1.3,2.8-2.7,3.9l0.9,0.4l3.8-0.3l0.3-0.2c2.1-0.6,4.3-1.5,6.5-1.9c2.9-0.6,5.8,0.2,8.4-1.6
	L820.4,104.3z"/>
<path class="st5" d="M791.5,96.7c6.1,1.5,13.8,2.5,19.4,5.1l9.4,2.4l0,0.1l-0.8,0.6c1.2,1.4,1.3,1.9,1.6,3.7
	c-0.8,1.6-1.3,2.8-2.7,3.9l0.9,0.4l3.8-0.3c-2.5,1.1-5.6,1.3-8.3,1.8c-3.9,0.7-7.8,1.6-11.7,1.9l-9.2-0.3l6.6-6.1l0.2-0.2l0.1-0.3
	c0.9-1,1.8-1.6,3.1-2l0.3-0.1l-0.2-1.3c-1.5-0.7-2.2-1.2-3-2.7l-0.2-0.4c0.2-0.7-0.2-1.2-0.4-1.8c-2.3-1.7-3-1.3-5.6-1.6
	C793,99.4,792.4,98.1,791.5,96.7z M810.9,101.8l-0.6,0.6l3.2,1.2c0.6,1.5-0.3,3.7-0.7,5.2c-1.2,0.5-3.7,1.1-4.4,2.2
	c-0.9,1.4-1.8,2.6-3.2,3.6c4.4,0.4,9.7-0.9,14.1-1.6l0,0l-0.9-0.4c1.4-1.1,1.9-2.3,2.7-3.9c-0.4-1.8-0.4-2.3-1.6-3.7l0.8-0.6l0-0.1
	L810.9,101.8z"/>
<path class="st6" d="M810.9,101.8l9.4,2.4l0,0.1l-0.8,0.6c1.2,1.4,1.3,1.9,1.6,3.7c-0.8,1.6-1.3,2.8-2.7,3.9l0.9,0.4l0,0
	c-4.4,0.7-9.7,2-14.1,1.6c1.4-1,2.2-2.2,3.2-3.6c0.7-1.1,3.2-1.7,4.4-2.2c0.4-1.5,1.3-3.8,0.7-5.2l-3.2-1.2L810.9,101.8z"/>
<linearGradient id="SVGID_00000072961870315764922070000002437199957063980719_" gradientUnits="userSpaceOnUse" x1="371.1245" y1="862.256" x2="353.9836" y2="806.3371" gradientTransform="matrix(1.3333 0 0 -1.3814 156.955 1245.0649)">
	<stop  offset="0" style="stop-color:#CFE0B8;stop-opacity:0.9255"/>
	<stop  offset="1" style="stop-color:#D1E1B9"/>
</linearGradient>
<path style="fill:url(#SVGID_00000072961870315764922070000002437199957063980719_);" d="M540.8,36c3.5-0.3,6.8-0.5,10.3-0.1
	c3.7,0.5,7.7,2,11.3,3.1l16.9,4.4l141.8,35.8L776.8,93l4.5,1.2l10.1,2.5c1,1.4,1.5,2.7,3.4,2.9c2.6,0.3,3.3-0.2,5.6,1.6
	c0.2,0.7,0.6,1.2,0.4,1.8l0.2,0.4c0.8,1.5,1.5,2,3,2.7l0.2,1.3l-0.3,0.1c-1.3,0.4-2.1,1-3.1,2l-0.1,0.3l-0.2,0.2l-6.6,6.1l9.2,0.3
	l-13.6,2.3l-121.3,20.5l-0.1,0.6c-1.9,3.8-1.2,10.9-1.5,15.1l-1,12.2c-0.1,2.6,0.4,6.1-0.2,8.6c-0.6,2.2-2.1,4.7-3.3,6.7
	c-1.5-1.4-1-4.7-1-6.8l-0.4,0c-4.7-1.4-13.2,1.7-18.1,2.8l-0.5-0.1c-0.7-0.1-1.2-0.1-1.9-0.3c-1.6-0.5-2.3-0.5-3.2-2.1l-12.1,2.8
	l0.1-31.7l-1.9,0.1l-55-18l-11.8-3.7c-2.8-1-5.8-1.6-8.7-2.4l0.6-1.3l6.2-0.3c3.8,0.9,6.7,0.3,10.5-0.7l2.2-0.9
	c-2.9-3.2-10.8-2.2-15-2.2c-1.8,0-3.2,0.1-4.6-1.1l0.9-0.8l-2.6-0.2c1.1-1.6,10-3.7,12.2-4.6c3-1.1,6.1-2.2,8.8-3.9l-0.5-0.5
	c1.3-1,2.4-2.1,3.5-3.3c0.3-1.4,0.4-1.8-0.2-3.2c-1.3-3.2-6.3-5.1-9.2-6.3c-10.6-2.5-20.9-5.4-31.7-7l-23.7-2.5
	c-5.4-0.4-12.7,0-17.8-2.1l0.1-2.6c0.1-3.6-0.7-7.5-1.1-11.1l-2.2-20.6c-0.2-1.2-0.2-1.9,0.3-3c4.9-1.5,10.2-2.5,15.3-3.1
	c3.7-1,7.7-1.3,11.5-1.7c2.4-0.8,5.4-0.8,7.9-1.1l13.9-2.2C535.7,36.7,538.3,36.7,540.8,36z M548.5,115.9l-0.9,0.8
	c1.4,1.3,2.8,1.1,4.6,1.1c4.2,0.1,12.1-0.9,15,2.2L565,121c-3.7,1-6.7,1.5-10.5,0.7l-6.2,0.3l-0.6,1.3c2.9,0.7,5.9,1.3,8.7,2.4
	l11.8,3.7l55,18l1.9-0.1l-0.1,31.7l12.1-2.8c0.9,1.6,1.6,1.6,3.2,2.1c0.6,0.2,1.2,0.3,1.9,0.3l0.5,0.1c4.9-1.2,13.4-4.3,18.1-2.8
	l0.4,0c0,2-0.4,5.3,1,6.8c1.1-2,2.7-4.5,3.3-6.7c0.7-2.5,0.1-6,0.2-8.6l1-12.2c0.3-4.3-0.5-11.4,1.5-15.1l0.1-0.6
	c-0.1-0.6-0.3-1.2-0.6-1.8c-0.7-1.4-2.8-2.2-4.1-2.7c-5.8-2.3-11.8-3.7-17.7-5.5l-28.5-7.5c-10-2.7-20-6.3-30.2-8
	c-5.7-1-11.2-1.4-17-1.7c-4-0.2-8.2,0.4-12.1-0.9c-2.2,0.8-11.1,3-12.2,4.6L548.5,115.9z M540.8,36c-2.5,0.7-5.1,0.7-7.7,1.1
	l-13.9,2.2c-2.5,0.3-5.5,0.3-7.9,1.1c1.9,0,4.2-0.1,6,0.3c1,0.2,1.7,0.9,2.7,1c2.6,0.2,5.2-0.3,7.8,0.1c1.6,0.2,3.2,1,4.8,1
	c1.3,0,1.6-1,2.8-1c2.9,0,4.2-2.2,7-2.1c2.3,0,2.5,1.1,4.3,1.5c2.3,0.6,5.9-0.7,8.1,0.1c0.1,0,1.1,0.9,1.2,0.9
	c0.4,0.2,1.7,0.1,2.2,0.1l0,1.5c4.3-0.2,8.2-1.8,12.5-0.9l0.6-0.4c0.9,1.1,1.5,2.3,2.9,2.4c1.7,0.1,3.6-0.8,5.2-1.3L562.4,39
	c-3.6-1-7.6-2.6-11.3-3.1C547.7,35.5,544.3,35.7,540.8,36z M721.2,79.1c0.7,1.4,1.8,2.1,3.2,2.6c0.7,0.2,1.4-0.4,2-0.2
	c0.6,0.1,1.2,0.8,1.8,1c1,0.4,3.7,0.2,5,0.3l0.1,0.8l1.4,1c-1.2,0.3-2.3,0.3-3.5,0.4c0.9,0.7,2.5,0.6,3.6,0.7c0.6-0.5,1.1-1.2,2-1.1
	c1,0.1,1.4,0.5,2.1,1l0.5,0.3l-0.3,0.5l-1.3,0.1c3.8,2.4,8.2,2.7,12.5,3.7c0.5-0.5,0.9-0.9,1.3-1.5l3.2,0l0.8,0.9l4.2,0l0.5,0.5
	c0.9,0.8,2,1.2,3,1.6l0.4-0.1c0.9-0.3,1.6-0.5,2.6-0.2l-0.1,0.6c0.3,0.2,1.3,0.7,1.6,0.7c0.7,0,1.9-0.8,2.5-0.7
	c0.2,0.1,1.4,1.3,1.6,1.6l-0.4,0.5l-1.4,0.1l0.4,0.6c0.7,0,2.2,0.2,2.8-0.2c1.1-0.8,2.2-1.3,3.5-1.7L721.2,79.1z M484.2,48.2
	c2.1,0.1,3.7,1.1,5.7,1.3c1.3-0.5,2.8-1,4-1.6c1-0.5,1.9-2,2.7-2.4c1.9-0.8,4.6,0,6.1-1.6c-1.7-0.4-1.8-0.4-2.9-1.7
	c-5.1,0.6-10.4,1.6-15.3,3.1C484,46.3,484.1,46.9,484.2,48.2z M781.3,94.2c0.7,1.6,0.7,2.3,2.4,2.9c0.8,0.3,1.4,0.1,2.2,0l0.9,1.4
	l-0.7,0.6l0.5,0.2c1.3,0.6,2.1,1,2.9,2.2c1.6,0.4,3.3,0.6,4.9,1c1,0.3,1.5,0.1,2.5-0.3l0.7,0.2c0.8,0.2,1.5,0.2,2.3,0.2
	c0.5,0,0.3,0,0.9,0.3c0.2-0.7-0.2-1.2-0.4-1.8c-2.3-1.7-3-1.3-5.6-1.6c-1.9-0.2-2.4-1.5-3.4-2.9L781.3,94.2z M789.7,118.8l13.6-2.3
	l-9.2-0.3l6.6-6.1l0.2-0.2c-1.3,0.5-2.1,0.9-3.3,1.7c-1.7,1.2-4.8,0.2-6.7,1c-0.5,0.2-1.8,1.8-2.2,2.3l1.3,0.8
	c0.8-0.6,0.9-0.7,1.9-0.7l0,1.4l-0.5,0.2c-0.6,0.2-0.9,0.5-1.3,0.9l-3.4,0.1C787.4,118.3,788.7,118.5,789.7,118.8z"/>
<path class="st1" d="M560.6,94l1.8-1.3c3.7,1.6,8.8,3.9,10.4,8.1c0.2,0.6-0.1,1.3-0.2,1.9c-1.4,2.1-3.4,3.6-5.6,4.6l-0.5-0.5
	c1.3-1,2.4-2.1,3.5-3.3c0.3-1.4,0.4-1.8-0.2-3.2C568.5,97,563.5,95.2,560.6,94z"/>
<path class="st8" d="M789.7,118.8c-1-0.3-2.3-0.4-3-1.2l3.4-0.1c0.4-0.4,0.7-0.7,1.3-0.9l0.5-0.2l0-1.4c-1,0-1.1,0.1-1.9,0.7
	l-1.3-0.8c0.5-0.5,1.7-2.1,2.2-2.3c1.9-0.9,5,0.2,6.7-1c1.1-0.8,2-1.2,3.3-1.7l-0.2,0.2l-6.6,6.1l9.2,0.3L789.7,118.8z"/>
<path class="st9" d="M781.3,94.2l10.1,2.5c1,1.4,1.5,2.7,3.4,2.9c2.6,0.3,3.3-0.2,5.6,1.6c0.2,0.7,0.6,1.2,0.4,1.8
	c-0.5-0.3-0.4-0.3-0.9-0.3c-0.8,0-1.5,0-2.3-0.2l-0.7-0.2c-0.9,0.3-1.5,0.5-2.5,0.3c-1.6-0.4-3.2-0.5-4.9-1
	c-0.8-1.2-1.7-1.6-2.9-2.2l-0.5-0.2l0.7-0.6l-0.9-1.4c-0.8,0.2-1.4,0.3-2.2,0C782,96.5,782,95.8,781.3,94.2z"/>
<path class="st10" d="M484.2,48.2c-0.2-1.2-0.2-1.9,0.3-3c4.9-1.5,10.2-2.5,15.3-3.1c1.1,1.3,1.3,1.3,2.9,1.7
	c-1.5,1.6-4.2,0.8-6.1,1.6c-0.9,0.4-1.8,1.9-2.7,2.4c-1.2,0.7-2.7,1.1-4,1.6C487.9,49.2,486.3,48.3,484.2,48.2z"/>
<path class="st11" d="M721.2,79.1L776.8,93c-1.3,0.4-2.4,0.9-3.5,1.7c-0.6,0.4-2,0.2-2.8,0.2l-0.4-0.6l1.4-0.1l0.4-0.5
	c-0.3-0.3-1.4-1.5-1.6-1.6c-0.6-0.1-1.8,0.7-2.5,0.7c-0.3,0-1.2-0.6-1.6-0.7l0.1-0.6c-1-0.3-1.6-0.1-2.6,0.2l-0.4,0.1
	c-1.1-0.4-2.2-0.8-3-1.6l-0.5-0.5l-4.2,0l-0.8-0.9l-3.2,0c-0.4,0.5-0.8,1-1.3,1.5c-4.3-1-8.7-1.2-12.5-3.7l1.3-0.1l0.3-0.5l-0.5-0.3
	c-0.8-0.5-1.2-0.9-2.1-1c-0.8-0.1-1.3,0.6-2,1.1c-1.1-0.1-2.7,0-3.6-0.7c1.2-0.1,2.3-0.1,3.5-0.4l-1.4-1l-0.1-0.8
	c-1.2-0.1-4,0-5-0.3c-0.6-0.2-1.1-0.9-1.8-1c-0.6-0.1-1.4,0.5-2,0.2C722.9,81.2,721.9,80.5,721.2,79.1z"/>
<path class="st12" d="M487.5,79.8l1,1.8c6.3,0.9,12.6,0.8,18.9,1.2c15.6,1,31.8,2.5,46.9,6.9c2.4,0.7,6.1,1.5,8.1,3l-1.8,1.3
	c-10.6-2.5-20.9-5.4-31.7-7l-23.7-2.5c-5.4-0.4-12.7,0-17.8-2.1L487.5,79.8z"/>
<path class="st13" d="M540.8,36c3.5-0.3,6.8-0.5,10.3-0.1c3.7,0.5,7.7,2,11.3,3.1l16.9,4.4c-1.6,0.5-3.5,1.4-5.2,1.3
	c-1.4-0.1-2.1-1.3-2.9-2.4l-0.6,0.4c-4.3-0.9-8.2,0.7-12.5,0.9l0-1.5c-0.5,0-1.8,0.1-2.2-0.1c-0.1,0-1.1-0.9-1.2-0.9
	c-2.2-0.8-5.8,0.5-8.1-0.1c-1.8-0.5-2-1.5-4.3-1.5c-2.8,0-4.1,2.1-7,2.1c-1.1,0-1.5,1-2.8,1c-1.6,0-3.2-0.8-4.8-1
	c-2.6-0.4-5.2,0.1-7.8-0.1c-1-0.1-1.7-0.8-2.7-1c-1.8-0.4-4.2-0.2-6-0.3c2.4-0.8,5.4-0.8,7.9-1.1l13.9-2.2
	C535.7,36.7,538.3,36.7,540.8,36z"/>
<path class="st14" d="M548.5,115.9l-2.6-0.2c1.1-1.6,10-3.7,12.2-4.6c3.9,1.3,8,0.7,12.1,0.9c5.8,0.3,11.3,0.8,17,1.7
	c10.2,1.7,20.2,5.3,30.2,8l28.5,7.5c5.9,1.9,11.9,3.2,17.7,5.5c1.3,0.5,3.4,1.3,4.1,2.7c0.3,0.6,0.5,1.2,0.6,1.8l-0.1,0.6
	c-1.9,3.8-1.2,10.9-1.5,15.1l-1,12.2c-0.1,2.6,0.4,6.1-0.2,8.6c-0.6,2.2-2.1,4.7-3.3,6.7c-1.5-1.4-1-4.7-1-6.8l-0.4,0
	c-4.7-1.4-13.2,1.7-18.1,2.8l-0.5-0.1c-0.7-0.1-1.2-0.1-1.9-0.3c-1.6-0.5-2.3-0.5-3.2-2.1l-12.1,2.8l0.1-31.7l-1.9,0.1l-55-18
	l-11.8-3.7c-2.8-1-5.8-1.6-8.7-2.4l0.6-1.3l6.2-0.3c3.8,0.9,6.7,0.3,10.5-0.7l2.2-0.9c-2.9-3.2-10.8-2.2-15-2.2
	c-1.8,0-3.2,0.1-4.6-1.1L548.5,115.9z M625.2,147.1l-0.1,31.7l12.1-2.8c0.9,1.6,1.6,1.6,3.2,2.1c0.6,0.2,1.2,0.3,1.9,0.3l0.5,0.1
	c4.9-1.2,13.4-4.3,18.1-2.8l0.4,0c-0.1-2.2,0.2-4.4,0.3-6.5l2.6-29.3L625.2,147.1z M567.2,120.1L565,121c-3.7,1-6.7,1.5-10.5,0.7
	l-6.2,0.3l-0.6,1.3c2.9,0.7,5.9,1.3,8.7,2.4l11.8,3.7c2.5-0.7,3.2,0.3,5.3-1.6c-0.5-1.5-1.5-1.8-2.7-2.6c-1.2,0-2.7-0.2-3.9,0.3
	l0.1,1l-0.5,0.5l-1.1-0.6l0.2-0.4l0.2-0.6c0.4-1,0.3-1.6,0.2-2.6l-0.1-0.4c1.9,1.3,2.8,1.8,5,1.7c0.6-0.7,1.2-1.3,2-1.8l0.5-0.2
	l-0.1-1.2l-3.5-1.4L567.2,120.1z"/>
<path class="st1" d="M548.5,115.9c9.8-1.1,20.1-1.5,29.9,0.1c-2.8,1.5-5.6,2.1-8.5,3.1l-2.7,0.9c-2.9-3.2-10.8-2.2-15-2.2
	c-1.8,0-3.2,0.1-4.6-1.1L548.5,115.9z"/>
<path class="st15" d="M567.2,120.1l2.7-0.9l3.5,1.4l0.1,1.2l-0.5,0.2c-0.8,0.5-1.4,1.1-2,1.8c-2.2,0.1-3.2-0.4-5-1.7l0.1,0.4
	c0.1,1,0.2,1.7-0.2,2.6l-0.2,0.6l-0.2,0.4l1.1,0.6l0.5-0.5l-0.1-1c1.2-0.5,2.6-0.3,3.9-0.3c1.2,0.8,2.3,1.1,2.7,2.6
	c-2.2,1.9-2.9,0.9-5.3,1.6l-11.8-3.7c-2.8-1-5.8-1.6-8.7-2.4l0.6-1.3l6.2-0.3c3.8,0.9,6.7,0.3,10.5-0.7L567.2,120.1z"/>
<path class="st16" d="M554.5,121.6c3.8,0.9,6.7,0.3,10.5-0.7c0.1,1.4,0,1.3-0.9,2.4c-2.1,0.2-6.5-0.5-8,1.1l0.1,0.4
	c0.2,0.5,0.2,0.3,0.1,0.7c-2.8-1-5.8-1.6-8.7-2.4l0.6-1.3L554.5,121.6z"/>
<path class="st17" d="M625.2,147.1l38.9-7.2l-2.6,29.3c-0.2,2.2-0.4,4.4-0.3,6.5l-0.4,0c-4.7-1.4-13.2,1.7-18.1,2.8l-0.5-0.1
	c-0.7-0.1-1.2-0.1-1.9-0.3c-1.6-0.5-2.3-0.5-3.2-2.1l-12.1,2.8L625.2,147.1z M661.5,169.1c-7.3,4-16.2,5.2-24.3,6.9
	c0.9,1.6,1.6,1.6,3.2,2.1c0.6,0.2,1.2,0.3,1.9,0.3l0.5,0.1c4.9-1.2,13.4-4.3,18.1-2.8l0.4,0C661.1,173.5,661.3,171.3,661.5,169.1z"
	/>
<path class="st18" d="M661.5,169.1c-0.2,2.2-0.4,4.4-0.3,6.5l-0.4,0c-4.7-1.4-13.2,1.7-18.1,2.8l-0.5-0.1c-0.7-0.1-1.2-0.1-1.9-0.3
	c-1.6-0.5-2.3-0.5-3.2-2.1C645.3,174.4,654.2,173.1,661.5,169.1z"/>
<linearGradient id="SVGID_00000116217909525696423810000004000795433195187343_" gradientUnits="userSpaceOnUse" x1="173.8802" y1="870.6286" x2="164.5762" y2="780.5726" gradientTransform="matrix(1.3333 0 0 -1.3814 156.955 1245.0649)">
	<stop  offset="0" style="stop-color:#CFE0B7;stop-opacity:0.9647"/>
	<stop  offset="1" style="stop-color:#D1E1B9"/>
</linearGradient>
<path style="fill:url(#SVGID_00000116217909525696423810000004000795433195187343_);" d="M450.5,49.9c3.2-0.5,8.8-2,11.7-0.8
	l1.2-0.3l-0.4-0.4c1.3-0.3,2.6-0.6,4-0.8l4.8-0.9l3.7,35l0.3,1.6c3.3,0.3,6.6,0.5,9.7-0.7c0.7-0.3,1.2-0.2,2-0.2
	c5.1,2.1,12.3,1.6,17.8,2.1l23.7,2.5c10.9,1.6,21.1,4.5,31.7,7c2.9,1.2,7.9,3,9.2,6.3c0.6,1.4,0.5,1.8,0.2,3.2
	c-1.1,1.2-2.2,2.3-3.5,3.3l0.5,0.5c-2.7,1.7-5.9,2.7-8.8,3.9c-2.2,0.8-11.1,3-12.2,4.6l2.6,0.2l-0.9,0.8c1.4,1.3,2.8,1.1,4.6,1.1
	c4.2,0.1,12.1-0.9,15,2.2L565,121c-3.7,1-6.7,1.5-10.5,0.7l-6.2,0.3l-0.6,1.3c2.9,0.7,5.9,1.3,8.7,2.4l11.8,3.7l55,18
	c-0.7,1.3-1.4,2.6-1.8,4l-1.6-2.6c-0.5-0.8-1.2-1.1-1.9-1.6c-2.8,0-5.5,0.1-8.3,0.7c-2.8,0.7-5.8,0.6-8.7,1l-17.7,2.7
	c-2.9,0.3-5.8,0.9-8.7,0.4c-7.7,0.4-15.7,2.4-23.3,3.7l-47.7,8.2l-41.6,7l-12.8,2.3c-2.3,0.4-4.9,0.5-7.2,1.2
	c-2.1,0.7-4.1,0.4-6.2,0c-10.2-2.1-20.5-5.8-30.7-8.3l-78.6-19.8l-82.2-20.3l-106-28.1c2.7-2.8,20.3-3.9,25-4.5l21.1-3.2l31.8-4.7
	l95.8-14.4l26.5-3.8c5-1.3,10.3-1.6,15.4-2.3l25.2-3.7L450.5,49.9z M216.3,85.2l-31.8,4.7l3.9,1.2l0.5,0.2c2.5,0.7,6.7-0.2,9.4,0
	c1.6,0.1,3.4,0.7,5.1,0.5c1.5-0.2,2.9-1.2,4.2-1.8c2.1-0.9,4.2-1.5,6.5-1.8c2.5-0.2,6.6,0.9,8.5-0.4c-0.2-0.3-0.4-0.5-0.7-0.7
	C219.9,85.9,218.3,86.7,216.3,85.2z M312.2,70.8c0.7,0.5,2,1.7,2.8,1.9c1.7,0.5,3.4-0.6,5,0.5c1.8,0,4.6,0.5,6-0.5
	c-1.2-0.6-3.6-0.3-5-0.3L321,72c1.4,0,3.2,0.2,4.5-0.3c1.6-0.5,4.2-0.8,5.4-1.8l0.4-0.4c1.8,0,1.9-0.1,3.3,1
	c1.7-1.2,4.5-0.3,6.2-1.5c-0.8-0.8-1-0.8-2-1.1l-0.2-1L312.2,70.8z"/>
<path class="st20" d="M312.2,70.8l26.5-3.8l0.2,1c1.1,0.3,1.2,0.3,2,1.1c-1.7,1.2-4.5,0.4-6.2,1.5c-1.3-1.1-1.5-1-3.3-1L331,70
	c-1.3,1-3.8,1.3-5.4,1.8c-1.4,0.4-3.1,0.3-4.5,0.3l-0.1,0.4c1.4,0,3.8-0.4,5,0.3c-1.4,1-4.2,0.5-6,0.5c-1.6-1.1-3.3,0-5-0.5
	C314.2,72.5,312.9,71.3,312.2,70.8z"/>
<path class="st21" d="M216.3,85.2c2,1.6,3.6,0.8,5.5,1.8c0.3,0.2,0.5,0.4,0.7,0.7c-1.9,1.3-6,0.2-8.5,0.4c-2.3,0.2-4.4,0.8-6.5,1.8
	c-1.3,0.6-2.8,1.7-4.2,1.8c-1.6,0.2-3.4-0.4-5.1-0.5c-2.8-0.1-6.9,0.7-9.4,0l-0.5-0.2l-3.9-1.2L216.3,85.2z"/>
<path class="st0" d="M522.9,118.9l-0.2-1.2c2-1.2,8.2-1.3,10.4-0.6c0.7,0.2,1,1.1,1.4,1.7c3.7,2,9.2,4.2,13.3,4.3
	c2.9,0.7,5.9,1.3,8.7,2.4l11.8,3.7l55,18c-0.7,1.3-1.4,2.6-1.8,4l-1.6-2.6c-0.5-0.8-1.2-1.1-1.9-1.6c-2.8,0-5.5,0.1-8.3,0.7
	c-2.8,0.7-5.8,0.6-8.7,1l-17.7,2.7c-2.9,0.3-5.8,0.9-8.7,0.4l33.2-5.7l-49.3-16.6C546.7,125.6,535.5,120.2,522.9,118.9z"/>
<path class="st2" d="M522.9,118.9c-2.3,0.7-6.5,0.1-9,0.2c-20.4,0.5-40.4,0.4-60.7-2c-12.3-1.5-42.4-5.1-50.3-15.4
	c-0.3-1.5-0.3-1.9,0.4-3.2c1.5-3.1,8.5-6.1,11.7-7.1c4.4-1.4,9.3-3,14-3.3c5.9-0.5,11.9-1.9,17.8-2.7l21.2-2.2
	c2-0.2,5.2-0.2,6.9-1.2l0.5-0.3l0.3,1.6c3.3,0.3,6.6,0.5,9.7-0.7c0.7-0.3,1.2-0.2,2-0.2c5.1,2.1,12.3,1.6,17.8,2.1l23.7,2.5
	c10.9,1.6,21.1,4.5,31.7,7c2.9,1.2,7.9,3,9.2,6.3c0.6,1.4,0.5,1.8,0.2,3.2c-1.1,1.2-2.2,2.3-3.5,3.3l0.5,0.5
	c-2.7,1.7-5.9,2.7-8.8,3.9c-2.2,0.8-11.1,3-12.2,4.6l2.6,0.2l-0.9,0.8c1.4,1.3,2.8,1.1,4.6,1.1c4.2,0.1,12.1-0.9,15,2.2L565,121
	c-3.7,1-6.7,1.5-10.5,0.7l-6.2,0.3l-0.6,1.3c-4.1-0.1-9.6-2.4-13.3-4.3c-0.4-0.6-0.7-1.5-1.4-1.7c-2.3-0.7-8.4-0.6-10.4,0.6
	L522.9,118.9z"/>
<path class="st22" d="M534.5,118.9l0.2-1.2c6.3,0.5,13.8,2.2,19.8,4l-6.2,0.3l-0.6,1.3C543.6,123,538.1,120.8,534.5,118.9z"/>
<path class="st17" d="M128.6,336.5c-0.7-3.9-0.1-9-0.1-13l-0.2-30.4l0.6-108.7c0-3.4,0.5-6.9,0.6-10.3l0.1-20.5l0-31.3l-0.8-18.5
	c0-2.1-0.2-4.6,0.7-6.6c0.5-1.1,1.2-1.1,2.2-1.5c1.6,1.4,2.4,1.7,4.5,1.7c0.7,0,1.3,0.1,1.9,0.3l106,28.1l82.2,20.3l78.6,19.8
	c10.2,2.6,20.4,6.3,30.7,8.3c2.1,0.4,4.1,0.7,6.2,0c-0.9,3.1-0.6,6.6-0.6,9.8l0.1,17.4l0.1,0.2l-0.1,154.1l-0.6,25.8l-0.8,42.1
	c0,2.8-0.7,8.4,0.4,10.9c-2.4,0.9-4.9,0.9-7.4,1.1c-10.3,0.4-20.7,0.5-31-0.8c-18-2.3-35.9-8.5-53.4-13.5c-1.7-1.1-4.5-1.6-6.5-2
	c-2,0.4-3.6-0.4-5.5-0.9c-3.5-0.8-6.8-1.5-10.3-2.6c-3-1-5.8-2.3-8.9-2.6l0,7.1c0,5.7-0.2,11.5,0.6,17.1c0.8,5.8,2.7,11.7,3.9,17.5
	c-3.6,0.9-7.3,0.3-10.9,0.2l-14.7,0.2l-15.5,1.2c-0.8,0-1.4-0.1-2.2-0.4l-0.2-0.3c-2.1,0.3-6.2,9-7.8,11c-1.3,1.7-3.1,3.4-5.3,3.6
	c-3.9,0.3-5.6-1-8.4-3.5c3.7-10.7,10-20,14.5-30.3c0-3.4,4.6-10.3,6.2-13.3l8.9-17.9l-158.5-48.7L128.6,336.5z M128.6,336.5
	l-0.5,20.3l158.5,48.7l-8.9,17.9c-1.6,3-6.2,9.9-6.2,13.3c-4.4,10.3-10.8,19.6-14.5,30.3c2.8,2.4,4.5,3.8,8.4,3.5
	c2.2-0.2,4-1.9,5.3-3.6c1.6-2.1,5.7-10.7,7.8-11l0.2,0.3c0.8,0.3,1.4,0.4,2.2,0.4l15.5-1.2l14.7-0.2c3.6,0.1,7.4,0.6,10.9-0.2
	c-1.2-5.8-3.1-11.7-3.9-17.5c-0.8-5.6-0.6-11.4-0.6-17.1l0-7.1c3.1,0.4,5.9,1.7,8.9,2.6c3.4,1.1,6.8,1.8,10.3,2.6
	c1.9,0.4,3.6,1.2,5.5,0.9c-6.2-1.6-12.3-3.9-18.5-5.7l-57.6-17.8l-130-39.7c-1.3-0.4-2.2-0.6-3.1-1.7l0.3-1.1
	c-1.1-1.7-0.8-4.1-0.8-6.2c-0.9-1.4-1.2-0.9-2.6-1.5c-0.1,0-0.8-0.4-0.8-0.5c-0.2-0.4,0-1.9,0-2.4
	C129.2,340.6,129.2,338.6,128.6,336.5z"/>
<path class="st2" d="M435,196.5l0.2,5.7c1.7,0.8,4.6-0.2,6.2-0.8l0.1,0.2l-0.1,154.1l-0.6,25.8l-0.8,42.1c0,2.8-0.7,8.4,0.4,10.9
	c-2.4,0.9-4.9,0.9-7.4,1.1c0.4-1.8,0.1-4.1,0.1-5.9l0-12.9l0.4-31.6l1-138.8l0-31.1C434.5,209,434.3,202.7,435,196.5z"/>
<linearGradient id="SVGID_00000067198587738724705940000004064887660752078217_" gradientUnits="userSpaceOnUse" x1="60.3775" y1="637.809" x2="49.5875" y2="566.092" gradientTransform="matrix(1.3333 0 0 -1.3814 156.955 1245.0649)">
	<stop  offset="0" style="stop-color:#353717"/>
	<stop  offset="1" style="stop-color:#5B613C"/>
</linearGradient>
<path style="fill:url(#SVGID_00000067198587738724705940000004064887660752078217_);" d="M128.6,336.5c0.6,2.1,0.6,4.1,0.6,6.2
	c0,0.5-0.2,1.9,0,2.4c0,0.1,0.7,0.5,0.8,0.5c1.3,0.6,1.7,0.2,2.6,1.5c0.1,2.1-0.3,4.5,0.8,6.2l-0.3,1.1c0.9,1.1,1.8,1.3,3.1,1.7
	l130,39.7l57.6,17.8c6.2,1.9,12.3,4.2,18.5,5.7c-2,0.4-3.6-0.4-5.5-0.9c-3.5-0.8-6.8-1.5-10.3-2.6c-3-1-5.8-2.3-8.9-2.6l0,7.1
	c0,5.7-0.2,11.5,0.6,17.1c0.8,5.8,2.7,11.7,3.9,17.5c-3.6,0.9-7.3,0.3-10.9,0.2l-14.7,0.2l-15.5,1.2c-0.8,0-1.4-0.1-2.2-0.4
	l-0.2-0.3c-2.1,0.3-6.2,9-7.8,11c-1.3,1.7-3.1,3.4-5.3,3.6c-3.9,0.3-5.6-1-8.4-3.5c3.7-10.7,10-20,14.5-30.3
	c0-3.4,4.6-10.3,6.2-13.3l8.9-17.9l-158.5-48.7L128.6,336.5z M278.8,456.1c0.8,0.3,1.4,0.4,2.2,0.4l15.5-1.2l14.7-0.2
	c3.6,0.1,7.4,0.6,10.9-0.2c-1.2-5.8-3.1-11.7-3.9-17.5c-0.8-5.6-0.6-11.4-0.6-17.1l0-7.1l-8.9-2.8c-7.1,8.4-12.2,18.3-18.2,27.5
	l-7.5,11.2C281.5,451.3,279.7,453.5,278.8,456.1z"/>
<path class="st24" d="M309.4,434.8l2.8,0.4c1.4,0.3,2.8,2.1,3.4,3.4c1.3,2.8-1.1,6.5-2.2,9.1c-2.8,1.7-6.9,0.9-10.1,0.6
	c-1.7-0.4-3.9-0.8-5.2-2.1c-0.8-0.8-1.7-2.2-1.7-3.4c0-2.4,0.1-4.8,0.6-7.2L309.4,434.8z"/>
<linearGradient id="SVGID_00000172401796759699141750000013501852496520052155_" gradientUnits="userSpaceOnUse" x1="-49.542" y1="695.1862" x2="167.3407" y2="841.1472" gradientTransform="matrix(1.3333 0 0 -1.3814 156.955 1245.0649)">
	<stop  offset="0" style="stop-color:#1E2102"/>
	<stop  offset="1" style="stop-color:#454916"/>
</linearGradient>
<path style="fill:url(#SVGID_00000172401796759699141750000013501852496520052155_);" d="M128.6,336.5c-0.7-3.9-0.1-9-0.1-13
	l-0.2-30.4l0.6-108.7c0-3.4,0.5-6.9,0.6-10.3l0.1-20.5l0-31.3l-0.8-18.5c0-2.1-0.2-4.6,0.7-6.6c0.5-1.1,1.2-1.1,2.2-1.5
	c1.6,1.4,2.4,1.7,4.5,1.7c0.7,0,1.3,0.1,1.9,0.3l106,28.1l82.2,20.3l78.6,19.8c10.2,2.6,20.4,6.3,30.7,8.3c2.1,0.4,4.1,0.7,6.2,0
	c-0.9,3.1-0.6,6.6-0.6,9.8l0.1,17.4c-1.6,0.6-4.6,1.5-6.2,0.8l-0.2-5.7l0.1-16.4l-298.8-79.1l-0.2,45.4l-1.2,44.5l0.3,47.5l-1,69.2
	l0,29.3c0,4.9,0.8,11.8-0.8,16.5c-1.1-1.7-0.8-4.1-0.8-6.2c-0.9-1.4-1.2-0.9-2.6-1.5c-0.1,0-0.8-0.4-0.8-0.5c-0.2-0.4,0-1.9,0-2.4
	C129.2,340.6,129.2,338.6,128.6,336.5z"/>
<path class="st26" d="M838.5,108.9c2.1-0.7,4.9,0.6,6.9,1.4c0.2,1.8,0.3,3.8,0.8,5.5c0.7,2.3,0.4,5.4,0.4,7.8
	c0.1,4.3,0.7,9.3,0.1,13.5l-0.5,51.1l-0.7,24.4l-0.5,108.4l0,31.4c0,5.6,0.4,11.3-0.6,16.8l-109.7,18.5l-110.7,18.5
	c-1.7,0-8.2,0.6-9.5,1.5c-1.9,1.4-8.2,1.3-10.7,1.6c-1.8,0.3-39.5,5.6-39.7,5.9l-73.2,11.2l-29,4.4c-7,1-14.4,1.5-21.2,3.5
	c-1.1-2.5-0.4-8.1-0.4-10.9l0.8-42.1l0.6-25.8l0.1-154.1l-0.1-0.2l-0.1-17.4c0-3.2-0.3-6.7,0.6-9.8c2.2-0.7,4.8-0.8,7.2-1.2
	l12.8-2.3l41.6-7l47.7-8.2c7.6-1.3,15.7-3.4,23.3-3.7c2.9,0.5,5.8-0.1,8.7-0.4l17.7-2.7c2.9-0.4,5.8-0.4,8.7-1
	c2.8-0.6,5.5-0.6,8.3-0.7c0.7,0.4,1.4,0.8,1.9,1.6l1.6,2.6c0.4-1.5,1.1-2.7,1.8-4l1.9-0.1l-0.1,31.7l12.1-2.8
	c0.9,1.6,1.6,1.6,3.2,2.1c0.6,0.2,1.2,0.3,1.9,0.3l0.5,0.1c4.9-1.2,13.4-4.3,18.1-2.8l0.4,0c0,2-0.4,5.3,1,6.8
	c1.1-2,2.7-4.5,3.3-6.7c0.7-2.5,0.1-6,0.2-8.6l1-12.2c0.3-4.3-0.5-11.4,1.5-15.1l0.1-0.6l121.3-20.5l13.6-2.3
	c3.9-0.3,7.8-1.2,11.7-1.9c2.7-0.5,5.8-0.7,8.3-1.8l0.3-0.2c2.1-0.6,4.3-1.5,6.5-1.9C832.9,109.9,835.9,110.7,838.5,108.9z
	 M494.6,241.3c-5.8,1.8-12.3,5.8-17.3,9.3l-0.3-0.1c-5.3,2-10.1,11-12.4,16.2c-4.1,9.1-4.3,18.3-0.9,27.6
	c4.6,12.7,14.5,22,26.3,27.4c12.6,5.8,27.1,7.9,40.3,2.7c10.8-4.3,18.5-12.9,24-23.2c0.6-1.2,2.1-4.6,2.4-4.6
	c1.8-6,2.1-12.3,2.2-18.6c0-2.5,0.3-5.4-0.2-7.8c-1.1-5.6-13-3.2-16.9-5.9l-0.3-1.9c0.4-2.2,0.5-4.5-0.6-6.5
	c-3.1-5.9-6.4-9.8-12.6-12.5c-5.3-2.3-13-4.1-18.7-3.9c-2.6,0.1-5,0.8-7.6,1.2c-1.7,0.2-4.3,0.2-5.8,0.9l-0.3,0.2L494.6,241.3z
	 M494.6,241.3l1.2,0.5l0.3-0.2c1.5-0.8,4.1-0.7,5.8-0.9c2.5-0.3,5-1.1,7.6-1.2c5.7-0.3,13.4,1.5,18.7,3.9c6.1,2.7,9.5,6.6,12.6,12.5
	c1,2,0.9,4.3,0.6,6.5l0.3,1.9c3.9,2.7,15.8,0.3,16.9,5.9c0.5,2.5,0.2,5.3,0.2,7.8c-0.1,6.3-0.4,12.5-2.2,18.6l1,0.5
	c0.8-0.7,1.5-1.4,2-2.2c4.6-7.2,3.9-19.8,2-27.8c-2.1-8.7-8.7-15.3-16-19.7c-10.1-6.1-24.8-10.4-36.6-9.3
	C504.2,238.4,499.3,240.1,494.6,241.3z"/>
<path class="st4" d="M642.8,178.6c4.9-1.2,13.4-4.3,18.1-2.8l-0.1,4.6c-3.2,2.2-14.3,4.5-18.1,3.6c-1.2-0.3-1.3-0.7-1.9-1.8
	C641,180.1,641.2,179.8,642.8,178.6z"/>
<linearGradient id="SVGID_00000043435479279430091880000011925682449562445210_" gradientUnits="userSpaceOnUse" x1="422.5465" y1="703.9865" x2="414.4555" y2="696.4675" gradientTransform="matrix(1.3333 0 0 -1.3814 156.955 1245.0649)">
	<stop  offset="0" style="stop-color:#6B6D48"/>
	<stop  offset="1" style="stop-color:#94A16C"/>
</linearGradient>
<path style="fill:url(#SVGID_00000043435479279430091880000011925682449562445210_);" d="M708.8,234.1c0.5,0.4,0.2,0.5,0,1.1
	c-0.9,2.5-2,4.9-2.6,7.5c-1.6,7-1.1,14.1,0,21.1c3,18.1,15.4,33.1,29.5,43.4l-0.3,0.5c-12.6-7.2-24.4-19.3-29.3-33.5
	C701.6,261.2,703.2,246.5,708.8,234.1z"/>
<path class="st0" d="M672.7,316.4c1.7,0,2.5-0.2,4,0.8c0.1,1.3,0.1,1.3-0.6,2.3c-3.7,1.3-8.7,1.1-12.6,1.4l-38.8,2.4
	c-1.7-0.1-2.4,0.1-3.8-1l0-0.8c5.2-3,19.7-2.5,26.2-3L672.7,316.4z"/>
<path class="st28" d="M494.6,241.3c4.7-1.3,9.7-3,14.5-3.4c11.8-1.1,26.5,3.2,36.6,9.3c7.2,4.4,13.9,11,16,19.7
	c1.9,8,2.6,20.6-2,27.8c-0.6,0.9-1.3,1.6-2,2.2l-1-0.5c1.8-6,2.1-12.3,2.2-18.6c0-2.5,0.3-5.4-0.2-7.8c-1.1-5.6-13-3.2-16.9-5.9
	l-0.3-1.9c0.4-2.2,0.5-4.5-0.6-6.5c-3.1-5.9-6.4-9.8-12.6-12.5c-5.3-2.3-13-4.1-18.7-3.9c-2.6,0.1-5,0.8-7.6,1.2
	c-1.7,0.2-4.3,0.2-5.8,0.9l-0.3,0.2L494.6,241.3z"/>
<linearGradient id="SVGID_00000052803460314127429540000017668625433309040005_" gradientUnits="userSpaceOnUse" x1="444.4088" y1="729.3203" x2="500.2448" y2="739.1343" gradientTransform="matrix(1.3333 0 0 -1.3814 156.955 1245.0649)">
	<stop  offset="0" style="stop-color:#D7DDCC"/>
	<stop  offset="1" style="stop-color:#FFFFFF"/>
</linearGradient>
<path style="fill:url(#SVGID_00000052803460314127429540000017668625433309040005_);" d="M761.4,201.5c7.3-0.6,15.1,0.1,22.3,1.4
	c14.9,2.7,29.6,10.6,38.3,23.7c6.4,9.7,7.5,19.7,5.5,31c-2-6.3-2.1-13.1-4.3-19.3l-0.9-1.4c-3-1.9-9.3-1.1-12.8-1
	c-0.7-1.5-0.5-3.4-0.8-5.1c-0.5-3.5-2.1-6.8-3.9-9.7c-9.1-14.6-28.1-17.7-43.6-16.2c-4.8,0.4-10.5,2.8-15.1,2.5
	c-1.7-0.1-3.8-0.9-5.5-1.3C747.5,203.5,754.1,202.3,761.4,201.5z"/>
<path class="st2" d="M808.5,251.9l0.2,0.7c0.5,1.6,0.3,3.8,0.3,5.5c0,6.6-1,12.9-4.1,18.7c-5.9,11-15.7,17.3-27.2,20.5
	c-11.9,3.3-24.5,0.2-34.9-6.1c-7.4-4.5-15.3-12.2-17.5-21.1c-1.8-7.4-0.6-14.6,3.2-21.1c6-10.1,17.3-15.7,28-18.4
	c12.6-3.2,27.1-3.1,38.5,4C802.3,238.9,806.1,243.7,808.5,251.9z"/>
<path class="st12" d="M795.1,234.6c7.3,4.3,11,9.1,13.5,17.3c0,2,0.3,4-0.2,5.9c-1.6-1.6-2.7-6.8-3.8-9.2c-1.4-2.9-3.2-5.6-5.1-8.1
	C797.9,238.9,795.3,236.9,795.1,234.6z"/>
<path class="st17" d="M574.6,151.8c2.9,0.5,5.8-0.1,8.7-0.4l17.7-2.7c2.9-0.4,5.8-0.4,8.7-1c2.8-0.6,5.5-0.6,8.3-0.7
	c0.7,0.4,1.4,0.8,1.9,1.6l1.6,2.6c0.6,6.2-1.7,12.5-1.7,18.7c0,1-0.3,1.6-0.8,2.5c-0.3,0.7-0.3,1.3-0.3,2l-0.7,0.8
	c-0.5-0.6-0.6-1.1-0.7-1.8c-5.1-0.3-10.9,1.1-16,2l-24,4.1l-67.2,11l-43.6,7.1c-8.1,1.3-17.1,1.9-25,4.2l-0.1-0.2l-0.1-17.4
	c0-3.2-0.3-6.7,0.6-9.8c2.2-0.7,4.8-0.8,7.2-1.2l12.8-2.3l41.6-7l47.7-8.2C558.9,154.2,567,152.2,574.6,151.8z"/>
<path class="st17" d="M838.5,108.9c2.1-0.7,4.9,0.6,6.9,1.4c0.2,1.8,0.3,3.8,0.8,5.5c0.7,2.3,0.4,5.4,0.4,7.8
	c0.1,4.3,0.7,9.3,0.1,13.5l-36,5.9l-52.2,8.9l-36.2,6.5c-2.8,0.5-8.3,2.3-11,1.7l-40.4,7.2l-3.1,0.5c-0.9,2.3-0.4,5.4-0.6,7.9
	c-0.2,2.6-1,4.3-2.3,6.4c-1.1,1.9-5,4.4-7.1,4.9l-0.5,0.1l-9,2.1c-2.4,0.4-5.2,1.4-7.6,1.3c-0.9,0-0.5-0.1-1.2,0.2c-1,0.5-2,0-3,0.6
	c-0.8,0.4-2.5,0.4-3.5,0.7c-0.9,0.2-1.6-0.1-2.5,0.3c-1,0.5-2,0-3,0.3c-2.4,0.6-4.5,0.5-7,0.4c-1.3-1.2-2.4-2.2-3.2-3.8l-0.7-1
	l0.5-0.8c1.5,1.6,3.4,4.3,5.5,4.7l0.4-0.2c1.1-0.5,2.1,0,3.1-0.6c0.9-0.5,1.6,0,2.5-0.3l4.5-1l1.5,0l0.5-0.2c1-0.4,2-0.1,3-0.5
	c1.1-0.5,2.8-0.4,4-0.7c0.9-0.2,1.6,0,2.6-0.3c1.2-0.5,2.6-0.4,3.9-0.7c1.1-0.3,2.1-0.2,3.2-0.6c1.6-0.5,3.3-0.6,5-1.1l0.5-0.1
	c1.7-0.4,3.9-1.7,4.9-3.2l0.1-0.3c1.1-2,2.7-4.5,3.3-6.7c0.7-2.5,0.1-6,0.2-8.6l1-12.2c0.3-4.3-0.5-11.4,1.5-15.1l0.1-0.6
	l121.3-20.5l13.6-2.3c3.9-0.3,7.8-1.2,11.7-1.9c2.7-0.5,5.8-0.7,8.3-1.8l0.3-0.2c2.1-0.6,4.3-1.5,6.5-1.9
	C832.9,109.9,835.9,110.7,838.5,108.9z"/>
<path class="st2" d="M670.8,167.4l-2.6-0.3l-0.5-0.8l1-1.2l14.4-1.6l21.3-3.2c1.4-0.2,4.1-1.1,5.5-0.8c0.5,0.1,0.9,0.5,1.3,0.7
	L670.8,167.4z"/>
<path class="st1" d="M823.6,112.5c3.9,1.6,14.6-3.4,17.3-1.9c-1.8,1.5-4.6,1.8-6.9,2.2l-40.1,6.9l-75.7,13l-26.3,4.8
	c-4.3,0.9-8.6,2.2-12.9,2.9c-2.7,0.5-6.9,1.5-9.7,0.9c-0.5-0.1-0.6-0.2-0.9-0.4l-0.1-1.1l0.1-0.6l121.3-20.5l13.6-2.3
	c3.9-0.3,7.8-1.2,11.7-1.9c2.7-0.5,5.8-0.7,8.3-1.8L823.6,112.5z"/>
<path class="st17" d="M494.6,241.3l1.2,0.5l0.3-0.2c1.5-0.8,4.1-0.7,5.8-0.9c2.5-0.3,5-1.1,7.6-1.2c5.7-0.3,13.4,1.5,18.7,3.9
	c6.1,2.7,9.5,6.6,12.6,12.5c1,2,0.9,4.3,0.6,6.5l0.3,1.9c3.9,2.7,15.8,0.3,16.9,5.9c0.5,2.5,0.2,5.3,0.2,7.8
	c-0.1,6.3-0.4,12.5-2.2,18.6c-0.3,0-1.8,3.5-2.4,4.6c-5.4,10.3-13.2,19-24,23.2c-13.1,5.2-27.7,3.2-40.3-2.7
	c-11.8-5.4-21.7-14.7-26.3-27.4c-3.4-9.4-3.2-18.5,0.9-27.6c2.3-5.2,7.1-14.2,12.4-16.2l0.3,0.1
	C482.2,247.1,488.8,243.1,494.6,241.3z M494.6,241.3c-5.8,1.8-12.3,5.8-17.3,9.3l-0.3-0.1c-2.4,2.6-5,5.3-7,8.3
	c-4.3,6.6-6,14-7.7,21.7c6.5-1.3,13.2-2.3,19.8-1.6c7.2-9.7,14.5-16.2,26.7-17.7c6.5-0.8,13.1-0.6,19.4,0.7c2.6,0.5,6.5,1.9,9.1,1.8
	c1.2,0,2.9-1,3.9-1.5c0.4-2.2,0.5-4.5-0.6-6.5c-3.1-5.9-6.4-9.8-12.6-12.5c-5.3-2.3-13-4.1-18.7-3.9c-2.6,0.1-5,0.8-7.6,1.2
	c-1.7,0.2-4.3,0.2-5.8,0.9l-0.3,0.2L494.6,241.3z"/>
<path class="st30" d="M538.5,296.8c3.3,0.7,7.2,1.4,10.2,2.9l-0.3,0.5l-3,0.6l-10.2,1.4L538.5,296.8z"/>
<path class="st18" d="M494.6,241.3l1.2,0.5l0.3-0.2c1.5-0.8,4.1-0.7,5.8-0.9c2.5-0.3,5-1.1,7.6-1.2c5.7-0.3,13.4,1.5,18.7,3.9
	c6.1,2.7,9.5,6.6,12.6,12.5c1,2,0.9,4.3,0.6,6.5c-1.1,0.5-2.7,1.5-3.9,1.5c-2.6,0.1-6.4-1.3-9.1-1.8c-6.4-1.3-13-1.5-19.4-0.7
	c-12.2,1.6-19.5,8-26.7,17.7c-6.6-0.8-13.3,0.3-19.8,1.6c1.7-7.7,3.3-15,7.7-21.7c2-3,4.5-5.7,7-8.3l0.3,0.1
	C482.2,247.1,488.8,243.1,494.6,241.3z"/>
<path class="st26" d="M623.9,406.3l110.7-18.5l0.8,1.5l2.2,0.1l-74.5,12.9l11.4,21c2.1,3.7,5.6,8.6,6.6,12.6c4,0.2,8-0.2,12,0.1
	l61,6.2l61.5,6.2l53.2,8.7c15.2,2.7,30.5,5.3,45.4,9.5c5.5,1.5,13.1,3.4,17.3,7.6c1.2,1.2,1.3,1.9,1.4,3.6c-0.7,2.2-2.7,3.8-4.6,4.8
	c-4.3,2.3-9.9,3.5-14.5,4.9c14.2,3.9,44.2,11.6,51.9,25.6c1.1,1.9,1.5,4.2,0.8,6.3c-2.2,7.1-12.5,12.4-18.7,15.2
	c-40.9,18.4-86.9,22.8-130.7,28.4l-49.1,6l-42.8,3.3l-61.8,4.3l-47.2,1.6l-46.2,1.8l-76.6,0l-67.3,0.3l-125.8-4.9l-53.2-2.9
	l-84.1-9.5l-76.5-11.7c-17.7-3.5-35.5-7.5-52.2-14.4c-7.9-3.2-20.7-8.6-24.6-16.7c-0.9-1.9-0.5-4.3,0.3-6.2
	c3.8-9.4,24.5-17.5,33.6-20.9l15.4-5.4c-4.6-1.3-14.6-2.9-17.2-7.5c-0.5-0.8-0.5-2.4-0.2-3.3c1-3.4,6.3-5.5,9.2-6.9
	c4.8-2.2,10.1-3.5,15.2-4.8l22.5-4.9l102.4-15.3l41-5.6c13.2-1.8,26.2-3.7,39.5-2.8c-4.4,10.3-10.8,19.6-14.5,30.3
	c2.8,2.4,4.5,3.8,8.4,3.5c2.2-0.2,4-1.9,5.3-3.6c1.6-2.1,5.7-10.7,7.8-11l0.2,0.3c0.8,0.3,1.4,0.4,2.2,0.4l15.5-1.2l14.7-0.2
	c3.6,0.1,7.4,0.6,10.9-0.2c-1.2-5.8-3.1-11.7-3.9-17.5c-0.8-5.6-0.6-11.4-0.6-17.1l0-7.1c3.1,0.4,5.9,1.7,8.9,2.6
	c3.4,1.1,6.8,1.8,10.3,2.6c1.9,0.4,3.6,1.2,5.5,0.9c2,0.4,4.7,0.9,6.5,2c17.5,5,35.4,11.2,53.4,13.5c10.2,1.3,20.7,1.2,31,0.8
	c2.5-0.2,5-0.3,7.4-1.1c6.8-2,14.2-2.5,21.2-3.5l29-4.4l73.2-11.2c0.3-0.3,37.9-5.7,39.7-5.9c2.5-0.3,8.8-0.3,10.7-1.6
	C615.7,406.9,622.1,406.3,623.9,406.3z M623.9,406.3l2.1,1.2l-1.6,0.5c-0.1,2.8,1,5.5,1,8.3l0.7,9.1c0.6,1.7,0.6,2.1,0.3,3.8l-0.5,0
	l0,0.7c-0.2,2.5-1,5.6-2.1,7.8c-1.7,2.8-3.6,5.2-5.7,7.7c-0.4,2,0.1,3.1,0.6,5l29.2,0.5c7.8,0.4,16.4,1.7,24.1,0.5l4.1,5.9
	c2.9,3.6,4.4,9,8.5,11.5c1.3,0.8,2.6,1.1,4.1,0.7c1.9-0.6,3.6-2.2,4.4-4c2.4-4.9-5.9-16.5-8.2-20.8c-1.5-2.8-2.6-5.7-3.6-8.7
	c-0.9-4-4.5-9-6.6-12.6l-11.4-21l74.5-12.9l-2.2-0.1l-0.8-1.5L623.9,406.3z M618.6,450.4l0.2,5c2.3-0.2,4.6,0.3,6.9,0.3l13.5,0.4
	l20.6,0.1c4.4,0.2,9.3,1.3,13.6,0.7l0.7,0.7l1.8-0.4l-4.1-5.9c-7.7,1.1-16.4-0.1-24.1-0.5L618.6,450.4z"/>
<path class="st22" d="M629.1,485.6l-0.7-0.8l0.6-1.1c1.6-1.2,3.8-2.1,5.9-1.8c1.4,0.2,1.5,0.6,2.4,1.6
	C634.6,484.2,631.9,485.3,629.1,485.6z"/>
<path class="st18" d="M618.6,450.4l29.2,0.5c7.8,0.4,16.4,1.7,24.1,0.5l4.1,5.9l-1.8,0.4l-0.7-0.7c-4.3,0.6-9.2-0.5-13.6-0.7
	l-20.6-0.1l-13.5-0.4c-2.3-0.1-4.6-0.5-6.9-0.3L618.6,450.4z"/>
<path class="st17" d="M417,537c-5.3,2-13.2,1.1-18.9,1l-67.2-4.2c-18.6-1.2-38.8-0.9-56.9-5.7c-4-1.1-7.2-2.6-10.1-5.8
	c-0.1-1.8-0.3-2.4,0.8-4c2.1-3.1,5.7-5.2,9-6.6c9.8-4.1,20.6-4.9,30.9-7c-0.5,1.7-0.3,3.6-0.9,5.1c-0.4,1-0.4,2.7,0,3.7l0.2,0.5
	c0.3,0.9,0.5,1.9,0.8,2.8l0.1,0.4c0.5,1.5,4,5.6,5.4,6.2l0.4,0.1c4,2.2,7.6,4.5,12.2,5.3c0.6,0.1,0.8,0.2,1.4,0.4
	c0.8,0.4,1.3,0.1,2.1,0.2l0.5,0.2c1,0.5,2,0,3,0.3c4.4,1.1,10,1.4,14.5,0.5c1.5-0.3,2.5,0,4-0.5c1.4-0.5,3-0.5,4.5-1
	c1.8-0.7,3.4-1.5,5.1-2.3c1.7-0.8,3-2.6,4.3-4.1l0-0.1c1.4-2.8,1.4-6.1,1.6-9.2l17.8-0.2c9.9-0.5,19.1-1.4,28.9,0.8
	c-2.7,4.3-5,9.1-4,14.3c0.5,2.8,2.6,5,4.9,6.4C413.2,535.7,415.1,536.3,417,537z"/>
<path class="st1" d="M623.9,406.3l110.7-18.5l0.8,1.5l2.2,0.1l-74.5,12.9l11.4,21c2.1,3.7,5.6,8.6,6.6,12.6c1,3,2.1,5.9,3.6,8.7
	c2.3,4.4,10.6,16,8.2,20.8c-0.9,1.8-2.6,3.4-4.4,4c-1.5,0.5-2.8,0.1-4.1-0.7c-4.1-2.5-5.6-7.9-8.5-11.5l-4.1-5.9
	c-7.7,1.1-16.4-0.1-24.1-0.5l-29.2-0.5c-0.6-1.9-1.1-3-0.6-5c2.1-2.5,4-4.9,5.7-7.7c1.1-2.3,1.9-5.3,2.1-7.8l0-0.7l0.5,0
	c0.3-1.8,0.3-2.2-0.3-3.8l-0.7-9.1c0-2.8-1.1-5.5-1-8.3l1.6-0.5L623.9,406.3z M623.7,437.7c-1.7,2.8-3.6,5.2-5.7,7.7
	c-0.4,2,0.1,3.1,0.6,5l29.2,0.5c7.8,0.4,16.4,1.7,24.1,0.5c-4.3-5.9-8.5-12.9-13.7-18c-3.9,0.5-7.7-0.9-11.6-1.3l-19.9-1.8l-0.5-1.3
	l-0.5,0l0,0.7C625.6,432.3,624.8,435.4,623.7,437.7z M626,407.5l-1.6,0.5c-0.1,2.8,1,5.5,1,8.3l0.7,9.1c0.6,1.7,0.6,2.1,0.3,3.8
	l0.5,1.3l19.9,1.8c3.9,0.4,7.6,1.8,11.6,1.3l-20.3-28.1C634,405.4,629.8,406.5,626,407.5z"/>
<path class="st31" d="M623.7,437.7c1.1-2.3,1.9-5.3,2.1-7.8l0-0.7l0.5,0l0.5,1.3l19.9,1.8c3.9,0.4,7.6,1.8,11.6,1.3
	c5.2,5.1,9.5,12.1,13.7,18c-7.7,1.1-16.4-0.1-24.1-0.5l-29.2-0.5c-0.6-1.9-1.1-3-0.6-5C620.1,442.9,622,440.5,623.7,437.7z"/>
<path class="st2" d="M563.9,415.4c0.3-0.3,37.9-5.7,39.7-5.9c2.5-0.3,8.8-0.3,10.7-1.6c1.3-0.9,7.8-1.5,9.5-1.5l2.1,1.2l-1.6,0.5
	c-0.1,2.8,1,5.5,1,8.3l0.7,9.1c0.6,1.7,0.6,2.1,0.3,3.8l-0.5,0l0,0.7c-0.2,2.5-1,5.6-2.1,7.8c-1.7,2.8-3.6,5.2-5.7,7.7
	c-0.4,2,0.1,3.1,0.6,5l0.2,5l0.4,30.2c2.3,0,8.1,0.8,9.9,0c2.7-0.3,5.5-1.3,8.1-2.1c5.8-1.1,15.5,1.9,20.4,5.4
	c4.2,3,6.4,7.7,7.7,12.7c0.5,1.9,0.6,3.6,0.6,5.6c6.5,1.7,19.7,3.3,23.7,9.7c0.7,1.1,0.9,2.3,0.6,3.6c-0.5,2.2-3.1,4-4.9,5
	c-3.8,2.1-8.5,3.2-12.7,4.2c-9.6,2.4-19.4,3.8-29.2,5l-54,3.7l-14.8,1.1l-32.8,0.1l-21.7,1.2l-49.3,0c-9.2-0.1-20.3,1.1-29.1-1.7
	c-0.7-0.2-1.1-0.5-1.7-1c-7.6,1.1-15.5,0.2-23.1-1.1c-1.8-0.7-3.7-1.4-5.4-2.4c-2.3-1.4-4.4-3.6-4.9-6.4c-1-5.3,1.3-10.1,4-14.3
	c-9.8-2.2-19-1.3-28.9-0.8l-17.8,0.2c-0.2,3.1-0.2,6.4-1.6,9.2l0,0.1c-1.3,1.4-2.6,3.2-4.3,4.1c-1.7,0.8-3.3,1.6-5.1,2.3
	c-1.5,0.6-3.1,0.5-4.5,1c-1.5,0.6-2.5,0.2-4,0.5c-4.5,0.9-10.1,0.6-14.5-0.5c-1-0.3-2,0.2-3-0.3l-0.5-0.2c-0.8-0.1-1.3,0.1-2.1-0.2
	c-0.5-0.2-0.8-0.3-1.4-0.4c-4.6-0.8-8.2-3-12.2-5.3l-0.4-0.1c-1.5-0.6-4.9-4.7-5.4-6.2l-0.1-0.4c-0.3-0.9-0.5-1.9-0.8-2.8l-0.2-0.5
	c-0.4-1-0.4-2.7,0-3.7c0.5-1.5,0.3-3.4,0.9-5.1c0.9-1.6,2-3,3.1-4.5c4.6-6.1,10.5-7.6,17.6-8.6c-1.2-4.1-1-8.1-1-12.4
	c0-5.7,0-11.4-0.6-17.1c-0.3-2.4-0.3-5.3-1.5-7.4c-1.2-5.8-3.1-11.7-3.9-17.5c-0.8-5.6-0.6-11.4-0.6-17.1l0-7.1
	c3.1,0.4,5.9,1.7,8.9,2.6c3.4,1.1,6.8,1.8,10.3,2.6c1.9,0.4,3.6,1.2,5.5,0.9c2,0.4,4.7,0.9,6.5,2c17.5,5,35.4,11.2,53.4,13.5
	c10.2,1.3,20.7,1.2,31,0.8c2.5-0.2,5-0.3,7.4-1.1c6.8-2,14.2-2.5,21.2-3.5l29-4.4L563.9,415.4z"/>
<path class="st1" d="M622,435.9l1.7,1.8c-1.7,2.8-3.6,5.2-5.7,7.7c0.2-0.9,0.3-1.6,0.7-2.4l0.3-0.6l-3.3,1.3
	C618.3,441.2,620.2,438.9,622,435.9z"/>
<path class="st1" d="M621.9,423.7c-0.1-2.1-0.7-5.2,0.3-7l3.2-0.5l0.7,9.1L621.9,423.7z"/>
<path class="st12" d="M621.9,423.7l4.1,1.6c0.6,1.7,0.6,2.1,0.3,3.8l-0.5,0l0,0.7c-0.2,2.5-1,5.6-2.1,7.8l-1.7-1.8
	C621.2,432.2,621.8,427.5,621.9,423.7z"/>
<path class="st4" d="M455.2,516.7L455,498c-0.2-8.1-1.9-19.9,2.4-27.1c1-1.7,2.6-3.2,4.4-3.6c-6.8,9.6-4.6,17.9-4.9,28.8l-1.2,0.3
	C455.6,498.8,456.1,515.9,455.2,516.7z"/>
<path class="st0" d="M339.3,476.7c0.5,3.7,0.3,7.7,0.4,11.5l0.5,16.1l-0.6,0.7c-1.7-0.2-2.6-0.8-3.7-2.2c-1-1.3-1.8-3.1-3.4-3.6
	c-1.5-0.6-2.7-1.1-3.9-2.2l0.9-0.8c2.1-0.7,5.4-0.4,7.7-0.5c1.7-5.9,0.7-12.1,0.8-18.2C338.7,477.2,338.9,477,339.3,476.7z"/>
<path class="st32" d="M332.6,499.1c-1.5-0.6-2.7-1.1-3.9-2.2l0.9-0.8l6.2,0.3C335.1,497.6,333.8,498.3,332.6,499.1z"/>
<path class="st32" d="M455.2,516.7c0.8-0.9,0.4-17.9,0.5-20.3l1.2-0.3l0.7,18.5c0.4,5.9,1.5,12.9-2.7,17.6c-2.4,2.6-6.4,4.1-9.7,4.5
	c-0.4-0.7-0.8-1.1-1.5-1.6c2.6-0.8,5.4-1.6,7.5-3.6C455.2,527.7,455.1,522,455.2,516.7z"/>
<path class="st4" d="M387.7,463c17,2.5,33.6,3.2,50.7,3.1c3,0,6.5-0.5,9.2,1.1c-2.4,1.3-24.6,0.4-29.1,0.6
	c-12.2,0.2-25.5-1.3-37.5-3.8c0.7-0.2,0.4-0.1,1.1-0.2l1.8-0.2C385.2,463.2,386.2,463.1,387.7,463z"/>
<path class="st1" d="M447.5,467.2c2.9,2.3,3.3,7.4,3.7,10.9c0.8,5.5,1.8,23.6-1.5,27.8l-0.4,0.5l-2.4,0.1l-0.6-0.7l0.8-3.7
	c-0.4-0.3-0.8-0.6-1.3-0.8l-0.6-1.1c0.9-0.2,1.6-0.5,2.5-1c0.7-3.5,0.6-7.4,0.7-11c0.1-6.8,0-13.2-1.3-19.9
	c-9.2,0-19.3,0.8-28.3-0.3l-0.6-0.1C422.9,467.6,445.1,468.5,447.5,467.2z"/>
<path class="st1" d="M550.3,497.6c0.1,1.7,0.5,3.8,0.1,5.4l1,0.5c1.6,2.4,6.9,3.3,9.5,5c3,1.8,5.3,4.8,7.2,7.8
	c0.6,3.2,1.3,8.3-0.6,11.1c-1.5,2.3-3.4,3.7-5.8,4.8l0.1-1.7c1.4-1.2,3.1-2.9,3.6-4.8c0.8-3.6,0.1-6.9-1.7-10.1
	c-6.6-11.1-16-7.4-26.2-10.1c-0.8-0.2-0.8-0.7-1.2-1.4c-1.2-0.7-2.1-1.4-3.1-2.4c0.7-0.7,1.2-1,2.2-0.9c3.3,0.5,7.3,0.2,10.5,1.2
	c1.2,0.4,2.5,0.4,3.8,0.4C550.3,501,550.2,499.1,550.3,497.6z"/>
<path class="st4" d="M464,459c-5.4-0.1-10.8-0.1-16.2,0.4c-6,0.5-12,1.5-18,1.6c-8.6,0.1-17.2-2.3-25.4-4.7
	c-8.6-2.4-17.2-4.9-25.2-8.9l0.2-0.5c11.6,4.6,23.9,9.1,36.2,10.6c18.1,2.3,37.3-1.1,55.5-2.3c-1.1,0.8-2.8,1.2-3.8,2
	C465.5,458.5,466.6,458.8,464,459z"/>
<linearGradient id="SVGID_00000088110962764716373480000001221453379567526066_" gradientUnits="userSpaceOnUse" x1="207.5763" y1="509.0016" x2="190.0473" y2="528.4316" gradientTransform="matrix(1.3333 0 0 -1.3814 156.955 1245.0649)">
	<stop  offset="0" style="stop-color:#1C2101"/>
	<stop  offset="1" style="stop-color:#303B1C"/>
</linearGradient>
<path style="fill:url(#SVGID_00000088110962764716373480000001221453379567526066_);" d="M410.6,513.9c2.6-2.5,5.3-4.9,8.5-6.6
	l2,1.2c-5.1,3.4-9.6,7.8-10.8,14.2c-0.5,2.5-0.3,5.3,1.2,7.4c2.9,4.2,9.7,5.1,14.3,5.7c5.8,0.7,12.2,0.5,17.9-0.6
	c0.6,0.5,1.1,0.8,1.5,1.6l-5.1,1.3c-7.6,1.1-15.5,0.2-23.1-1.1c-1.8-0.7-3.7-1.4-5.4-2.4c-2.3-1.4-4.4-3.6-4.9-6.4
	C405.6,523,407.9,518.1,410.6,513.9z"/>
<path class="st0" d="M317.6,420.2c1.5-0.5,2.2-1,3.8-0.6c1.1,2,0.9,4.4,1.1,6.6l0.9,13.7l5,57.7l-3.1-5.9c-1.2-4.1-1-8.1-1-12.4
	c0-5.7,0-11.4-0.6-17.1c-0.3-2.4-0.3-5.3-1.5-7.4c-1.2-5.8-3.1-11.7-3.9-17.5C317.4,431.7,317.6,425.9,317.6,420.2z"/>
<linearGradient id="SVGID_00000014630244639712907190000017343934530883917219_" gradientUnits="userSpaceOnUse" x1="142.6891" y1="541.3874" x2="151.5391" y2="571.7754" gradientTransform="matrix(1.3333 0 0 -1.3814 156.955 1245.0649)">
	<stop  offset="0" style="stop-color:#000000"/>
	<stop  offset="1" style="stop-color:#2F3513"/>
</linearGradient>
<path style="fill:url(#SVGID_00000014630244639712907190000017343934530883917219_);" d="M338.2,477.4l-0.5-27.5
	c-2.2-1.7-4.5-3.4-6.5-5.4c2.4,0.8,4.7,2.3,7,3.5l10.7,4.7c12.4,5,25.7,8,38.8,10.3c-1.4,0.1-2.5,0.2-3.8,0.6l-1.8,0.2
	c-0.7,0.1-0.4,0-1.1,0.2l-0.4,0l-16.4-3.2l-0.2,52.6c-0.2,3.1-0.2,6.4-1.6,9.2c-0.1-0.7-0.1-1.2,0.1-2c0.7-3.3,0.3-7.1,0.1-10.5
	l-0.7-15.1l-0.7-35l-22.5-8.8c1,8.3,0.4,17.1,0.6,25.5C338.9,477,338.7,477.2,338.2,477.4z"/>
<path class="st1" d="M440.5,434.4c6.8-2,14.2-2.5,21.2-3.5l29-4.4l73.2-11.2c-0.9,0.7-1.5,1.1-2.6,1.3l-27.5,4.6l-35.8,5.9
	l-33.9,5.7c-7.1,1.2-14.2,2.6-21.4,3.3c-13.5,1.3-28.3,2-41.8,0.3L399,436c-17-3.5-33.5-7.7-49.9-13.7l-0.4-1
	c17.5,5,35.4,11.2,53.4,13.5c10.2,1.3,20.7,1.2,31,0.8C435.6,435.4,438.1,435.3,440.5,434.4z"/>
<path class="st4" d="M495.9,450.8c7-1.5,14.5-2.5,21.3-4.9c3.4-1.2,6.3-5,9.7-4.3l1,1l-0.7,0c-1.1,0-2.1,0.3-3.2,0.5l-0.3,0.5
	c2.2,0.9,4.5,0.7,6.7,1.2c3.4,0.6,6.6,1.8,10,2.5c3.4,0.7,9.5,0.8,12.2,2.5c-2.1,0.5-4.2,0-6.3-0.3l-14.2-2.8
	c-2.1-0.4-4.4-0.3-6.5-0.9c-4.3-1.4-8,1.2-12.1,2.2c0.4,2.9,0.5,5.8,1.1,8.7c0.5,2.7,1.8,5.2,2.1,7.9c0.6,5,0.2,10.3,0.4,15.4l1,19
	l0.3,13.4c0,2.6-0.3,5.4,0.2,7.9c0.6,3.3,1.8,5.6,4.5,7.6c3.5,2.5,8.2,3.4,12.3,3.9c7.2,1,14.2,1.5,21.4,0.2c1.8-0.3,3.4-0.8,5-1.6
	l-0.1,1.7l-1.8,0.4c-9.7,2.5-23.5,2.4-33.2-0.5c-3.6-1.1-7.5-3.2-9.2-6.8l-0.3-0.7c-1.4-3-1.4-6.5-1.7-9.8l-0.8-29.9l-0.2-16.1
	c0-2.9,0.2-6.2-0.7-9l-1.1-3.7c-0.6-2.2-0.6-4.5-0.6-6.8c-1.3-0.2-2.4,0.3-3.7,0.5l-12.2,2L495.9,450.8z"/>
<path class="st0" d="M615.7,443.6l3.3-1.3l-0.3,0.6c-0.4,0.8-0.6,1.5-0.7,2.4c-0.4,2,0.1,3.1,0.6,5l0.2,5l0.4,30.2
	c2.3,0,8.1,0.8,9.9,0c2.7-0.3,5.5-1.3,8.1-2.1c5.8-1.1,15.5,1.9,20.4,5.4c4.2,3,6.4,7.7,7.7,12.7c0,2.9,0.2,5.8-0.7,8.6
	c-2.4,6.8-5.3,11.7-11.8,14.9l-3.2,1.4c-0.3-0.4-0.1-0.1-0.7-0.6l-0.5-0.4l0.4-0.4l-0.1-0.7c3.2-1.8,6.2-3.7,8.6-6.5
	c3-3.4,5.1-9.1,4.9-13.6c-0.3-5.1-1.9-8.8-5.6-12.3c-10.9-9.9-24.9-4.6-37.6-3.6c-0.4,3.3,0.3,9.5-1.1,12.2
	c-1.1,0.4-1.3,0.6-2.4,0.3c-1-3.1-0.3-7.6-0.2-10.9l0.3-22.2c0.1-4.3,0.7-8.9,0.3-13.2c-0.2-2.5-0.5-4.2-2.4-5.8
	c-3.1,0.2-6.2,1.4-9.1,2.4L615.7,443.6z"/>
<path class="st4" d="M550.3,497.6c0.1-6.3,0.2-12.6,1.1-18.9c1-7.5,2.9-14.9,4.4-22.3l-16.8-4.6c-1.6-0.4-4.7-0.7-5.9-1.7
	c0.9-0.7,1.8-0.4,2.9-0.3c9.7,1.2,19.3,4.2,29,5.6c13.7,2,26.7,0.7,40.4,0.3l-0.4,40.1c0,5.8-0.6,12.6,0.3,18.3
	c0.3,2.1,1.1,3.8,2.5,5.4c5.3,6,16.3,7.6,23.8,7.7c5.9,0.1,11.4-0.9,16.9-2.9l0.1,0.7l-0.4,0.4l0.5,0.4c0.6,0.4,0.4,0.2,0.7,0.6
	c-4.3,1.4-8.9,2.4-13.4,2.6c-9.6,0.4-22.6-0.3-30-7.5c-4.1-4-3.9-8.9-3.9-14.2l0.4-48.8c-4.8-0.6-10.1-0.2-14.9-0.2
	c-10.1,0-19.6-0.2-29.6-1.8c-1.8,6.5-3.6,12.8-4.7,19.5c-1.4,9-1.7,18.2-2.1,27.4l-1-0.5C550.8,501.4,550.4,499.3,550.3,497.6z"/>
<path class="st1" d="M495.9,450.8l0.4,1l12.2-2c1.3-0.2,2.4-0.6,3.7-0.5c0.1,2.3,0,4.6,0.6,6.8l1.1,3.7l-29.5,3.3
	c-7,0.7-14.8,1-21.5,3l0-0.4l1.5-1.9c0.9-1.2,1.6-2.5,1.4-4L464,459c2.6-0.2,1.5-0.5,3.3-1.8c1-0.8,2.6-1.2,3.8-2l0.1-0.2
	L495.9,450.8z"/>
<path class="st26" d="M551.4,503.5c0.4-9.1,0.7-18.3,2.1-27.4c1.1-6.7,2.9-13,4.7-19.5c10.1,1.6,19.5,1.8,29.6,1.8
	c4.9,0,10.1-0.4,14.9,0.2l-0.4,48.8l-0.7,5.7c-10.2,0-24.2-1.7-33.5,3c-1.9-3-4.2-5.9-7.2-7.8C558.3,506.8,553,505.8,551.4,503.5z"
	/>
<path class="st26" d="M462.8,466.2c6.7-2,14.5-2.3,21.5-3l29.5-3.3c0.9,2.7,0.6,6.1,0.7,9l0.2,16.1l0.8,29.9l-56.8,1.1l-1.2-1.2
	l-0.7-18.5c0.3-10.9-1.9-19.2,4.9-28.8C461.9,467.3,462.7,466.3,462.8,466.2z"/>
<path class="st26" d="M364,513.3l0.2-52.6l16.4,3.2l0.4,0c12,2.4,25.3,4,37.5,3.8l0.6,0.1c9.1,1.2,19.1,0.3,28.3,0.3
	c1.3,6.7,1.4,13.1,1.3,19.9c-0.1,3.6,0,7.5-0.7,11c-0.9,0.5-1.5,0.8-2.5,1l0.6,1.1c-8.2,3-16.8,3.9-24.8,7.2l-2-1.2
	c-3.2,1.7-5.9,4.1-8.5,6.6c-9.8-2.2-19-1.3-28.9-0.8L364,513.3z"/>
<path class="st4" d="M419.1,507.3c7.4-4.6,17.7-6.1,26.3-7.1l0.6,1.1c-8.2,3-16.8,3.9-24.8,7.2L419.1,507.3z"/>
<path class="st17" d="M665.3,501.5c0.5,1.9,0.6,3.6,0.6,5.6c6.5,1.7,19.7,3.3,23.7,9.7c0.7,1.1,0.9,2.3,0.6,3.6
	c-0.5,2.2-3.1,4-4.9,5c-3.8,2.1-8.5,3.2-12.7,4.2c-9.6,2.4-19.4,3.8-29.2,5l-54,3.7l-14.8,1.1l-32.8,0.1l-21.7,1.2l-49.3,0
	c-9.2-0.1-20.3,1.1-29.1-1.7c-0.7-0.2-1.1-0.5-1.7-1l5.1-1.3c3.4-0.5,7.4-1.9,9.7-4.5c4.2-4.7,3.1-11.7,2.7-17.6l1.2,1.2l56.8-1.1
	c0.2,3.3,0.2,6.8,1.7,9.8l0.3,0.7c1.8,3.6,5.6,5.7,9.2,6.8c9.7,2.9,23.4,3,33.2,0.5l1.8-0.4c2.4-1.1,4.3-2.5,5.8-4.8
	c1.9-2.8,1.1-7.9,0.6-11.1c9.3-4.7,23.3-3.1,33.5-3l0.7-5.7c0.1,5.3-0.1,10.2,3.9,14.2c7.3,7.2,20.4,8,30,7.5
	c4.5-0.2,9.1-1.2,13.4-2.6l3.2-1.4c6.5-3.2,9.4-8.1,11.8-14.9C665.6,507.4,665.4,504.5,665.3,501.5z"/>
</svg>
